<svg xmlns="http://www.w3.org/2000/svg" viewBox="0 0 111 111"><defs><style>.cls-1{fill:#8160d1;}</style></defs><title>icon-3</title><g id="Layer_2" data-name="Layer 2"><g id="Layer_1-2" data-name="Layer 1"><circle class="cls-1" cx="85.1" cy="85.1" r="3.7"/><polygon class="cls-1" points="3.7 16.65 3.7 40.7 3.7 83.25 0 83.25 0 40.7 0 16.65 3.7 16.65"/><path class="cls-1" d="M1.85,33.3a1.93,1.93,0,0,0,1.31-.54,1.86,1.86,0,0,0,0-2.62l-.27-.23a1.5,1.5,0,0,0-.34-.16.92.92,0,0,0-.33-.11,2.33,2.33,0,0,0-.37,0,1.93,1.93,0,0,0-1.31.54,1.77,1.77,0,0,0-.39.61,1.87,1.87,0,0,0,.39,2,1.77,1.77,0,0,0,.61.39A1.69,1.69,0,0,0,1.85,33.3Z"/><path class="cls-1" d="M13,7.4H11.1a1.85,1.85,0,0,0,0,3.7H13a1.85,1.85,0,1,0,0-3.7Z"/><path class="cls-1" d="M22.2,7.4H20.35a1.85,1.85,0,0,0,0,3.7H22.2a1.85,1.85,0,1,0,0-3.7Z"/><path class="cls-1" d="M31.45,7.4H29.6a1.85,1.85,0,0,0,0,3.7h1.85a1.85,1.85,0,0,0,0-3.7Z"/><path class="cls-1" d="M88.8,7.4H38.85a1.85,1.85,0,0,0,0,3.7H88.8a1.85,1.85,0,1,0,0-3.7Z"/><path class="cls-1" d="M107.3,66.6h-1.85V57.35A20.25,20.25,0,0,0,99.9,43.43V9.25A9.26,9.26,0,0,0,90.65,0H9.25A9.26,9.26,0,0,0,0,9.25v14.8a1.85,1.85,0,0,0,3.7,0V18.5H96.2V40.32a20.32,20.32,0,0,0-31.45,17V66.6H62.9a3.7,3.7,0,0,0-3.7,3.7V88.8H9.25A5.54,5.54,0,0,1,3.7,83.25V38.85a1.85,1.85,0,1,0-3.7,0v44.4A9.26,9.26,0,0,0,9.25,92.5h50v5.55a13,13,0,0,0,13,13h25.9a13,13,0,0,0,13-13V70.3A3.7,3.7,0,0,0,107.3,66.6ZM3.7,14.8V9.25A5.54,5.54,0,0,1,9.25,3.7h81.4A5.54,5.54,0,0,1,96.2,9.25V14.8ZM68.45,57.35a16.65,16.65,0,0,1,33.3,0V66.6H68.45Zm29.6,49.95H72.15a9.29,9.29,0,0,1-9.07-7.4h5.37a1.85,1.85,0,0,0,0-3.7H62.9V92.5h5.55a1.85,1.85,0,0,0,0-3.7H62.9V85.1h5.55a1.85,1.85,0,0,0,0-3.7H62.9V77.7h5.55a1.85,1.85,0,0,0,0-3.7H62.9V70.3h44.4V74h-5.55a1.85,1.85,0,1,0,0,3.7h5.55v3.7h-5.55a1.85,1.85,0,0,0,0,3.7h5.55v3.7h-5.55a1.85,1.85,0,1,0,0,3.7h5.55v3.7h-5.55a1.85,1.85,0,1,0,0,3.7h5.37A9.29,9.29,0,0,1,98.05,107.3Z"/><path class="cls-1" d="M85.1,79.55a5.54,5.54,0,0,0-1.85,10.76v4a1.85,1.85,0,0,0,3.7,0v-4A5.54,5.54,0,0,0,85.1,79.55Zm0,7.4A1.85,1.85,0,1,1,87,85.1,1.85,1.85,0,0,1,85.1,87Z"/><path class="cls-1" d="M22.2,25.9H14.8a3.7,3.7,0,0,0-3.7,3.7V44.4a3.7,3.7,0,0,0,3.7,3.7H29.6a3.7,3.7,0,0,0,3.7-3.7V38.85a1.85,1.85,0,1,0-3.7,0V44.4H14.8V29.6h7.4a1.85,1.85,0,1,0,0-3.7Z"/><path class="cls-1" d="M19.81,33.84a1.85,1.85,0,0,0-2.62,2.62l3.7,3.7a1.89,1.89,0,0,0,1.31.54h.08A1.83,1.83,0,0,0,23.62,40l9.25-11.1a1.86,1.86,0,0,0,.32-1.83A1.85,1.85,0,0,0,30,26.57l-8,9.54Z"/><path class="cls-1" d="M11.1,75.85a3.7,3.7,0,0,0,3.7,3.7H29.6a3.7,3.7,0,0,0,3.7-3.7V70.3a1.85,1.85,0,0,0-3.7,0v5.55H14.8V61.05h7.4a1.85,1.85,0,0,0,0-3.7H14.8a3.7,3.7,0,0,0-3.7,3.7Z"/><path class="cls-1" d="M30,58l-8,9.55-2.26-2.27a1.85,1.85,0,0,0-2.62,2.62l3.7,3.7a1.85,1.85,0,0,0,1.31.54h.08a1.83,1.83,0,0,0,1.34-.66l9.25-11.1a1.86,1.86,0,0,0,.32-1.83A1.85,1.85,0,0,0,30,58Z"/><path class="cls-1" d="M40.7,31.45H55.5a1.85,1.85,0,0,0,0-3.7H40.7a1.85,1.85,0,0,0,0,3.7Z"/><path class="cls-1" d="M40.7,40.7h24a1.85,1.85,0,0,0,0-3.7h-24a1.85,1.85,0,0,0,0,3.7Z"/><path class="cls-1" d="M40.7,62.9H55.5a1.85,1.85,0,1,0,0-3.7H40.7a1.85,1.85,0,0,0,0,3.7Z"/><path class="cls-1" d="M40.7,72.15H53.65a1.85,1.85,0,1,0,0-3.7H40.7a1.85,1.85,0,1,0,0,3.7Z"/></g></g></svg>