<svg xmlns="http://www.w3.org/2000/svg" viewBox="0 0 127.12 115"><defs><style>.cls-1{fill:#1fc7d3;}</style></defs><title>icon-1</title><g id="Layer_2" data-name="Layer 2"><g id="Layer_1-2" data-name="Layer 1"><path class="cls-1" d="M103.2,0H7.82A7.83,7.83,0,0,0,0,7.82V87.31a7.83,7.83,0,0,0,7.82,7.82H70.29a1.87,1.87,0,0,0,0-3.73h-7v-12a7.79,7.79,0,0,0-4.82-7.22l-9.78-4.08a2.1,2.1,0,0,1-1.3-2V63.2a13.81,13.81,0,0,0,4-9.67v-8c0-6.51-6.18-11.8-13.78-11.8s-13.79,5.29-13.79,11.8v8a13.82,13.82,0,0,0,4,9.67v2.91a2.1,2.1,0,0,1-1.3,2l-9.78,4.08a7.79,7.79,0,0,0-4.82,7.22v12H7.82a4.11,4.11,0,0,1-4.1-4.1V23.59H107.3V54.52a1.86,1.86,0,0,0,3.72,0V7.82A7.82,7.82,0,0,0,103.2,0ZM15.65,79.36a4.1,4.1,0,0,1,2.52-3.79L28,71.5a5.83,5.83,0,0,0,3.59-5.39v-.4a1.86,1.86,0,0,0,1.06-3.47,10.1,10.1,0,0,1-5-8.71v-8c0-4.45,4.51-8.08,10.06-8.08s10.06,3.63,10.06,8.08v8a10.09,10.09,0,0,1-5,8.71,1.87,1.87,0,0,0,.93,3.48h.13v.4a5.82,5.82,0,0,0,3.59,5.39l9.78,4.07a4.1,4.1,0,0,1,2.52,3.79v12h-44ZM107.3,19.87H3.72v-12a4.11,4.11,0,0,1,4.1-4.1H103.2a4.11,4.11,0,0,1,4.1,4.1Z"/><path class="cls-1" d="M9.83,9.94h0a1.86,1.86,0,1,0,1.88,1.86A1.85,1.85,0,0,0,9.81,9.94Z"/><path class="cls-1" d="M21.73,9.94h0a1.86,1.86,0,1,0,1.88,1.86,1.85,1.85,0,0,0-1.88-1.86Z"/><path class="cls-1" d="M15.77,9.94h0a1.86,1.86,0,1,0,1.88,1.86,1.85,1.85,0,0,0-1.88-1.86Z"/><path class="cls-1" d="M101.22,9.94H29.68a1.86,1.86,0,1,0,0,3.72h71.54a1.86,1.86,0,0,0,0-3.72Z"/><path class="cls-1" d="M125.87,67.06,99,57.73a1.82,1.82,0,0,0-1.22,0L78.53,64.44A1.86,1.86,0,1,0,79.75,68l18.68-6.5,24.87,8.65a55.74,55.74,0,0,1-24.87,40.82A55,55,0,0,1,77,84.33a51.9,51.9,0,0,1-3.5-15.55,1.87,1.87,0,0,0-3.73.08,55,55,0,0,0,3.7,16.66,58.65,58.65,0,0,0,24,29.2,1.88,1.88,0,0,0,1,.28,1.82,1.82,0,0,0,1-.28,58.68,58.68,0,0,0,24-29.2,55,55,0,0,0,3.7-16.66,1.87,1.87,0,0,0-1.25-1.8Z"/><path class="cls-1" d="M110.53,77.56a1.85,1.85,0,0,0-2.63,0L96.39,89.07l-6.85-6.84a1.86,1.86,0,1,0-2.63,2.63L95.07,93a1.85,1.85,0,0,0,1.32.55A1.82,1.82,0,0,0,97.7,93l12.83-12.83a1.85,1.85,0,0,0,0-2.63Z"/><path class="cls-1" d="M95.25,31.79H63.46a3.86,3.86,0,0,0-3.85,3.85v6a3.85,3.85,0,0,0,3.85,3.85H95.25A3.85,3.85,0,0,0,99.1,41.6v-6a3.85,3.85,0,0,0-3.85-3.85Zm.13,9.81a.13.13,0,0,1-.13.13H63.46a.12.12,0,0,1-.12-.13v-6a.12.12,0,0,1,.12-.12H95.25a.12.12,0,0,1,.13.12Z"/><path class="cls-1" d="M87.31,49.68H63.46a1.86,1.86,0,0,0,0,3.72H87.31a1.86,1.86,0,1,0,0-3.72Z"/><path class="cls-1" d="M77.37,57.63H63.46a1.86,1.86,0,0,0,0,3.72H77.37a1.86,1.86,0,0,0,0-3.72Z"/></g></g></svg>