<svg xmlns="http://www.w3.org/2000/svg" viewBox="0 0 112 112"><defs><style>.cls-1{fill:#fe7d00;}</style></defs><title>icon-2</title><g id="Layer_2" data-name="Layer 2"><g id="Layer_1-2" data-name="Layer 1"><path class="cls-1" d="M65.33,97.07H3.73V14.93H63.47v3.59a1.87,1.87,0,0,0,3.73,0V9.33A9.35,9.35,0,0,0,57.87,0H9.33A9.35,9.35,0,0,0,0,9.33v93.34A9.35,9.35,0,0,0,9.33,112H57.87a9.35,9.35,0,0,0,9.33-9.33V98.93a1.87,1.87,0,0,0-1.87-1.86ZM3.73,9.33a5.6,5.6,0,0,1,5.6-5.6H57.87a5.6,5.6,0,0,1,5.6,5.6V11.2H3.73Zm59.74,93.34a5.6,5.6,0,0,1-5.6,5.6H9.33a5.6,5.6,0,0,1-5.6-5.6V100.8H63.47Z"/><path class="cls-1" d="M39.2,5.6H35.47a1.87,1.87,0,1,0,0,3.73H39.2a1.87,1.87,0,1,0,0-3.73Z"/><path class="cls-1" d="M29.87,106.4h7.46a1.87,1.87,0,1,0,0-3.73H29.87a1.87,1.87,0,1,0,0,3.73Z"/><path class="cls-1" d="M29.87,5.6H28a1.87,1.87,0,1,0,0,3.73h1.87a1.87,1.87,0,0,0,0-3.73Z"/><path class="cls-1" d="M16.8,18.67H7.47V28H11.2V22.4h5.6Z"/><path class="cls-1" d="M7.47,84v9.33H16.8V89.6H11.2V84Z"/><path class="cls-1" d="M102.48,60.13A5.26,5.26,0,0,0,101,57.67a5.74,5.74,0,0,0-6.72-1,5.43,5.43,0,0,0-.74-.92,5.72,5.72,0,0,0-5.85-1.35V41.07a5.42,5.42,0,0,0-1.63-3.94,5.53,5.53,0,0,0-4.46-1.64,5.74,5.74,0,0,0-5.11,5.79V63.47H74.67a5.59,5.59,0,0,0-5.6,5.6V79a39.31,39.31,0,0,0,4.39,18H72.8a1.87,1.87,0,0,0-1.87,1.86v11.2A1.87,1.87,0,0,0,72.8,112h33.6a1.87,1.87,0,0,0,1.87-1.87V98.93a1.87,1.87,0,0,0-1.87-1.86h-.69l.15-.31A39.25,39.25,0,0,0,110.13,79V65.33a5.39,5.39,0,0,0-1.63-3.93,5.71,5.71,0,0,0-6-1.27Zm2,48.14H74.67V100.8h29.86ZM106.4,79a35.72,35.72,0,0,1-3.86,16.09l-1,2H77.67l-.87-1.68A35.68,35.68,0,0,1,72.8,79v-10a1.87,1.87,0,0,1,1.87-1.87h1.86v9.33a1.87,1.87,0,0,0,3.74,0V41.28A2,2,0,0,1,82,39.2a1.88,1.88,0,0,1,2,1.87V65.33a1.87,1.87,0,1,0,3.73,0v-5.6a1.87,1.87,0,0,1,1.87-1.86,1.77,1.77,0,0,1,1.33.57,1.8,1.8,0,0,1,.54,1.29v9.34a1.87,1.87,0,0,0,3.73,0V61.6a1.86,1.86,0,0,1,3.2-1.3,1.81,1.81,0,0,1,.53,1.3V72.8a1.87,1.87,0,0,0,3.74,0V65.33a1.86,1.86,0,0,1,1.86-1.86,1.75,1.75,0,0,1,1.33.57,1.8,1.8,0,0,1,.54,1.29Z"/><path class="cls-1" d="M100.8,102.67H97.07a1.87,1.87,0,1,0,0,3.73h3.73a1.87,1.87,0,1,0,0-3.73Z"/><path class="cls-1" d="M57.87,44.8H70.93a1.87,1.87,0,1,0,0-3.73H57.87a1.87,1.87,0,1,0,0,3.73Z"/><path class="cls-1" d="M57.87,52.27H70.93a1.87,1.87,0,0,0,0-3.74H57.87a1.87,1.87,0,1,0,0,3.74Z"/><path class="cls-1" d="M30.8,44.8H43.87a1.87,1.87,0,0,0,0-3.73H30.8a1.87,1.87,0,1,0,0,3.73Z"/><path class="cls-1" d="M30.8,54.13H43.87a1.87,1.87,0,0,0,0-3.73H30.8a1.87,1.87,0,1,0,0,3.73Z"/><path class="cls-1" d="M93.33,52.27H106.4a1.87,1.87,0,0,0,0-3.74H93.33a1.87,1.87,0,0,0,0,3.74Z"/><path class="cls-1" d="M93.33,44.8H106.4a1.87,1.87,0,1,0,0-3.73H93.33a1.87,1.87,0,0,0,0,3.73Z"/><path class="cls-1" d="M110.13,24.27H20.53a1.86,1.86,0,0,0-1.86,1.86V85.87a1.86,1.86,0,0,0,1.86,1.86h44.8a1.87,1.87,0,1,0,0-3.73H22.4V28h85.87v9.33a1.87,1.87,0,1,0,3.73,0V26.13a1.87,1.87,0,0,0-1.87-1.86Z"/><path class="cls-1" d="M30.8,66.27H43.87a1.87,1.87,0,0,0,0-3.74H30.8a1.87,1.87,0,0,0,0,3.74Z"/><path class="cls-1" d="M30.8,75.6H43.87a1.87,1.87,0,0,0,0-3.73H30.8a1.87,1.87,0,1,0,0,3.73Z"/></g></g></svg>