<svg xmlns="http://www.w3.org/2000/svg" xmlns:xlink="http://www.w3.org/1999/xlink" viewBox="0 0 577.77 510.14"><defs><style>.cls-1{fill:#f6f9fc;}.cls-2{fill:url(#linear-gradient);}.cls-3{fill:#f8bdc5;}.cls-4{fill:#575988;}.cls-5{opacity:0.1;}.cls-17,.cls-5{isolation:isolate;}.cls-6{fill:url(#linear-gradient-2);}.cls-7{fill:#5d76b7;}.cls-8{fill:#ffd037;}.cls-9{fill:url(#linear-gradient-3);}.cls-10{fill:#f0f5fa;}.cls-11{fill:#dedff7;}.cls-12{fill:#eb6475;}.cls-13,.cls-15{fill:none;stroke:#535461;stroke-miterlimit:10;}.cls-13{stroke-width:2px;}.cls-14{fill:#319bff;}.cls-16{fill:#a8a8a8;}.cls-17{opacity:0.2;}</style><linearGradient id="linear-gradient" x1="291.76" y1="-9415.09" x2="291.76" y2="-9093.38" gradientTransform="matrix(1, 0, 0, -1, -96.51, -8943.43)" gradientUnits="userSpaceOnUse"><stop offset="0" stop-color="gray" stop-opacity="0.25"/><stop offset="0.54" stop-color="gray" stop-opacity="0.12"/><stop offset="1" stop-color="gray" stop-opacity="0.1"/></linearGradient><linearGradient id="linear-gradient-2" x1="-2303.57" y1="-8349.7" x2="-2303.57" y2="-8070.46" gradientTransform="matrix(0.82, -0.57, -0.57, -0.82, -2459.88, -7902.97)" xlink:href="#linear-gradient"/><linearGradient id="linear-gradient-3" x1="-2290.49" y1="-8164.59" x2="-2290.49" y2="-8126.01" gradientTransform="matrix(0.82, -0.57, -0.57, -0.82, -2459.88, -7902.97)" xlink:href="#linear-gradient"/></defs><title>img-3</title><g id="Layer_2" data-name="Layer 2"><g id="Layer_1-2" data-name="Layer 1"><path class="cls-1" d="M.26,265.5C2,284.87,13,302.4,19.66,320.85a131.2,131.2,0,0,1,2.56,81.47c-1.6,5.5-3.57,11-3.57,16.64,0,19.4,22.11,32.29,42.2,40.85a768.74,768.74,0,0,0,158.82,48c17.83,3.37,40.1,4.82,51.38-7.84,5.41-6.08,6.72-14,10.7-20.85,10.14-17.39,34.81-24.15,56.95-28a694.53,694.53,0,0,1,80.71-9.29c27.24-1.53,58.17-2.87,76.23-20.75,11.47-11.37,14.81-27.06,15.27-41.88,1.5-48.62-21.73-101.24,8.08-143.35,12.51-17.66,32.92-30.55,45.33-48.27,18-25.66,16.42-58.25,4.25-85.6s-33.71-50.61-54.94-73.4C506.57,21,499.08,13.17,488.52,9.68c-11-3.64-23.42-2-35.19-.25-53.52,7.82-109.08,16.33-154,43.17-22.3,13.33-40.92,30.61-60.82,46.51-42.95,34.36-92.74,66.09-149.47,79.65C43,189.78-3.91,219.5.26,265.5Z"/><path class="cls-2" d="M254.87,268.32c.28-.14.56-.27.84-.38,0,0-23.65-13.33-30.24-17a55.31,55.31,0,0,1-6.79-4.78c8.22-3,19.73-8.31,25.81-16.32,0,0-1.72-1.43-3.93-3.52l2.38-2.77s12.4-10,3.88-15.18c-6.93-4.21-11.31,7-12.7,11.32l-.49-.58s-13.34,20.39-31.34,10.25a24.71,24.71,0,0,1-2.78-5.07,22.89,22.89,0,0,0-6.31-8.84l-1.83-7.08-3.26-2.69a121.19,121.19,0,0,1,.57-12.62c0-.26,0-.52.09-.78a16.68,16.68,0,0,0,10.76-15.38,16,16,0,0,0-1.63-7c2.55-2.92,4.41-6.88,3.86-10.33-.44-2.66-2.71-4.4-5.44-5.63a44.72,44.72,0,0,0-8.25-2.77c-4.42-1.19-9.25-1.76-13.56-.21-7.11,2.57-11.51,5.52-17,10.51-4.37,3.94-9.18,10.8-14.34,13.77s-10.22,6.81-12.22,12.2c-2.82,7.61,1,15.8,2.79,23.71a45.54,45.54,0,0,1-2.2,26.64c-3.38,8.46-9.43,16.73-8,25.67,1.15,6.8,6.53,12.05,13.14,15.09a33.14,33.14,0,0,0,9.3,3A31.23,31.23,0,0,0,162.66,280a62,62,0,0,1-9.3,17.22c-3.82,4.85-3.44,7.49-.07,7.74-.12.46-.23.94-.33,1.45-1.1,5.38-1.45,14.18.4,28.57,4.65,36.27-5.43,47.38-5.43,47.38s1.08.38,3,.94l-.24.67c-2.13,6.06-4.15,16.73-.07,31,4.4,15.32,5.69,22.38,6.07,25.41v.18a6.42,6.42,0,0,0-3.23,3.31,9.42,9.42,0,0,0,1.41,10.33v14.06h1.94V456.36a33.59,33.59,0,0,1,4.34,6.6,15,15,0,0,0,11.55,8.18c5,.68,10.5.93,12.8-.72,0,0,1.72-3.24-6.51-7.17l-.07-.1c-2.71-3.95-6.89-10.8-7.52-16.18a45.2,45.2,0,0,0-2.12-9.69h0a29,29,0,0,1-1.52-7.31c-.57-7.63-1.57-24.34-.09-28,1-2.49,1.59-8.72,1.93-14.17,0-.25,0-.5,0-.74a108.31,108.31,0,0,0,26,.19v3.62s-3.49,11.1,3.49,27c0,0,9.46,14.45,11.6,23,.06.24.12.48.17.72-1.27.15-6.86,1.46-4.79,13.3l-.39,15.55h1.94l.39-13.7s1.94-3.33,8.53,3.71c1,1.06,1.9,2.05,2.71,3a24,24,0,0,0,18.83,7.94c4.24-.15,8.28-.57,9.87-1.65,0,0,3.87-3-5.82-4.44l-4.47-1.33h-.16l-.64-.71c-3.38-3.83-8.3-10.32-9.56-16.92a29.93,29.93,0,0,0-2.1-6.61l-3.62-8.16-8.54-43.64s.45-1.92.89-4.26c0-.26.09-.53.14-.8l1.3-.49s7.75-5.56-3.88-39.24c0,0-4.52-18.77-6.81-33.71l5.64-1.09s-.87-13.19-2.61-22.37c1.15-4.31,1.78-8,1.07-9.86a16.86,16.86,0,0,1-1-5.16A118.66,118.66,0,0,0,206.53,259l7.3,5.17L250.67,282a11,11,0,0,1-1.23-7.2c2.68,3.84,9.81,12.4,16,5.35S259.69,269.41,254.87,268.32Z"/><path class="cls-3" d="M249.63,268.44s19,3.28,11.68,12.05-16.06-6.94-16.06-6.94Z"/><path class="cls-4" d="M186.46,211.85s9.49,4.38,12.78,13.5S217.5,248,223.7,251.64l28.48,16.8s-9.49,3.65-4.75,13.87l-34.68-17.52-15.69-11.68Z"/><path class="cls-5" d="M186.46,211.85s9.49,4.38,12.78,13.5S217.5,248,223.7,251.64l28.48,16.8s-9.49,3.65-4.75,13.87l-34.68-17.52-15.69-11.68Z"/><path class="cls-6" d="M333.75,1.41S291.94-13.86,247.47,56c0,0-18.69,39-60.46,38.86l-4.48-10.2L174.11,88l113,258.19,8.52-2.74L242.43,221.17c17.66-1.35,57-14.07,92.91-93.32,0,0,32.24-60.19,79.46-53.07Z"/><path class="cls-7" d="M180.14,96l54.78,123.9s53.13,13,100.18-90.91c0,0,31.56-58.87,77.73-51.91L333.57,5.33s-40.9-14.92-84.39,53.44C249.17,58.77,228,103.09,180.14,96Z"/><polygon class="cls-8" points="249.92 81.72 252.58 89.14 247.46 94.23 253.43 93.5 255.66 100.29 257.43 92.58 262.99 92.13 258.06 88.14 259.2 80.86 254.84 85.72 249.92 81.72"/><polygon class="cls-8" points="261.09 59.48 263.46 66.49 258.98 72.06 264.31 70.84 267.17 77.2 267.88 69.3 273.71 68.35 268.65 65.06 269.73 58.13 266.15 62.77 261.09 59.48"/><polygon class="cls-8" points="277.98 45.95 280.54 51.89 276.14 58.02 281.4 56.25 283.96 62.19 285.67 54.84 291.71 53.74 286.08 50.53 288 43.03 283.31 48.74 277.98 45.95"/><polygon class="cls-8" points="296.85 45.55 299.42 51.49 294.08 56.73 300.19 55.29 302.55 61.38 304.46 53.88 310.65 53 305.6 50.62 307.37 42.91 302.19 48.35 296.85 45.55"/><polygon class="cls-8" points="312.54 56.63 315.11 62.57 309.78 67.81 315.88 66.36 318.24 72.45 320.15 64.95 326.33 64.07 321.29 61.69 323.06 53.98 317.87 59.42 312.54 56.63"/><polygon class="cls-8" points="320.94 73.67 323.5 79.61 318.17 84.85 324.27 83.41 326.63 89.5 328.54 82 334.73 81.12 329.69 78.74 331.46 71.03 326.26 76.47 320.94 73.67"/><polygon class="cls-8" points="316.89 100.87 319.75 107.23 314.67 115.07 320.82 112.35 323.45 117.94 324.73 109.96 331.23 107.31 325.49 104.8 326.69 97.18 322.77 102.67 316.89 100.87"/><polygon class="cls-8" points="307.68 126.39 309.91 133.18 305.45 140.58 311.4 138.02 313.9 144.32 315.09 135.77 320.68 133.14 315.64 130.76 316.98 122.42 312.78 128.41 307.68 126.39"/><polygon class="cls-8" points="290.05 141.98 292.36 149.33 286.98 155.84 292.31 154.62 294.67 160.71 296.44 153 301.96 150.72 297.61 147.55 298.81 139.01 294.75 145.21 290.05 141.98"/><polygon class="cls-8" points="271.85 144.68 273.95 152.18 268.32 157 274.02 156.76 275.68 162.72 277.88 155.64 284.13 154.4 279.56 150.47 280.63 143.54 276.56 147.91 271.85 144.68"/><polygon class="cls-8" points="255.34 131.09 257.51 138.24 250.61 143 257.87 143.23 259.27 150.6 262.02 142.53 268.84 142.13 263.71 138.27 265.88 129.35 259.77 134.82 255.34 131.09"/><polygon class="cls-8" points="248.86 106.54 251.03 113.69 244.13 118.46 251.4 118.68 252.79 126.06 255.54 117.98 262.37 117.58 257.23 113.72 259.4 104.81 253.29 110.27 248.86 106.54"/><path class="cls-9" d="M309.9,102l-12.62-14a2.19,2.19,0,0,0-3.1-.17h0l-1,.93-5.28-5.88a5.6,5.6,0,0,0-7.9-.43h0l-6.88,6.18a5.6,5.6,0,0,0-.43,7.9h0l5.28,5.89-1,.92a2.19,2.19,0,0,0-.16,3.1h0l12.62,14a2.19,2.19,0,0,0,3.1.17h0l17.26-15.49a2.19,2.19,0,0,0,.18-3.1Zm-34.77-5.82a5.59,5.59,0,0,1,.42-7.9h0l3.87-3.48a5.6,5.6,0,0,1,7.9.43h0L291.66,90,279.46,101Zm19.55,8,2,2.3a1.21,1.21,0,0,1-.09,1.73,1.22,1.22,0,0,1-1.74-.09h0l-2.15-2.4a3,3,0,1,1,1.94-1.52Z"/><path class="cls-10" d="M280.43,83.2l-6.54,5.87a5.31,5.31,0,0,0-.4,7.5h0l5.54,6.16,1.43-1.28-4.64-5.17a5.31,5.31,0,0,1,.4-7.5h0l3.68-3.3a5.31,5.31,0,0,1,7.5.4h0L292,91.06l1.43-1.29-5.54-6.17a5.31,5.31,0,0,0-7.5-.4Z"/><path class="cls-10" d="M293.92,88.32,277.52,103a2.1,2.1,0,0,0-.16,3l12,13.34a2.09,2.09,0,0,0,3,.16l16.4-14.72a2.1,2.1,0,0,0,.16-3l-12-13.32a2.08,2.08,0,0,0-2.95-.18Zm.46,15.52,1.94,2.16a1.16,1.16,0,1,1-1.72,1.56l-2.05-2.29a2.82,2.82,0,1,1,1.85-1.44Z"/><polygon class="cls-10" points="177.39 90.05 287.55 341.67 295.89 338.99 185.65 86.8 177.39 90.05"/><path class="cls-3" d="M231.37,222.43s4.39-17.89,12.42-12.77-3.65,15-3.65,15l-3.29,4Z"/><polygon class="cls-11" points="187.42 206.06 191.58 209.66 193.33 216.78 190.48 215.13 190.48 209.66 187.41 209.29 187.42 206.06"/><polygon class="cls-5" points="187.42 206.06 191.58 209.66 193.33 216.78 190.48 215.13 190.48 209.66 187.41 209.29 187.42 206.06"/><path class="cls-4" d="M199.79,278.29l2.43,31.41,7.26-1.47s-1.61-25.55-4.84-29.94S199.79,278.29,199.79,278.29Z"/><path class="cls-5" d="M199.79,278.29l2.43,31.41,7.26-1.47s-1.61-25.55-4.84-29.94S199.79,278.29,199.79,278.29Z"/><path class="cls-3" d="M182.08,464.13,170.4,466l-6.57-5.12-4.74-15v-5.49a12.83,12.83,0,0,0-.14-2c-.35-3-1.56-9.95-5.73-25.06-3.85-14-1.95-24.56.06-30.53a26.8,26.8,0,0,1,2.49-5.61h15.7s-.09,4.36-.38,9.39c-.32,5.37-.87,11.53-1.81,14-1.4,3.64-.45,20.12.08,27.64a29,29,0,0,0,1.43,7.21h0a46.58,46.58,0,0,1,2,9.56c.58,5.31,4.53,12.05,7.08,15.95C181.16,462.9,182.08,464.13,182.08,464.13Z"/><path class="cls-3" d="M237.58,464.49,232.47,466l-9.86-4L210.2,448.8v-7.3a14.37,14.37,0,0,0-.4-2.52c-2-8.42-10.9-22.67-10.9-22.67-6.57-15.7-3.29-26.65-3.29-26.65V378.33s17.16-5.84,17.89-3.65c.41,1.23-.1,4.89-.63,7.85-.41,2.29-.83,4.2-.83,4.2l8,43.08,3.41,8a31,31,0,0,1,2,6.52c1.19,6.49,5.82,12.91,9,16.69A45.55,45.55,0,0,0,237.58,464.49Z"/><path class="cls-5" d="M182.08,464.13,170.4,466l-6.57-5.12-4.74-15v-5.49a12.83,12.83,0,0,0-.14-2,2.5,2.5,0,0,1,.5-.23s1.47,5.48.73,8c-.57,2,4.4,9.65,6.45,12.62a8.62,8.62,0,0,0,4.21,3.34c4,1.41,7.81-.49,9.06-1.23C181.16,462.9,182.08,464.13,182.08,464.13Z"/><path class="cls-4" d="M180,461.05s-4.62,3.22-9.49,1.49a8.66,8.66,0,0,1-4.21-3.31c-2-3-7-10.61-6.45-12.63.73-2.55-.72-8-.72-8a6,6,0,0,0-3.16,3.32,9.64,9.64,0,0,0,1.33,10.2V466h1.83V454.28a33.6,33.6,0,0,1,4.09,6.51,14.14,14.14,0,0,0,10.9,8.07c4.7.67,9.88.91,12-.71C186.1,468.15,187.7,465,180,461.05Z"/><path class="cls-5" d="M237.58,464.49,232.47,466l-9.86-4L210.2,448.8v-7.3a14.37,14.37,0,0,0-.4-2.52l.4,0c0,1.9,3.23,6.42,5.5,9.36a55.87,55.87,0,0,1,3.31,4.79c4.73,7.62,12.92,8,15.44,8C236.24,463.2,237.58,464.49,237.58,464.49Z"/><path class="cls-4" d="M210.2,439.67s-6.94,0-4.75,13.14l-.36,15.34h1.82l.37-13.51s1.82-3.29,8,3.65c.94,1,1.79,2,2.56,2.93a22.16,22.16,0,0,0,17.73,7.83c4-.15,7.8-.57,9.29-1.63,0,0,3.65-2.92-5.48-4.38l-4.2-1.28s-10.55,1.14-16.19-7.95A54.76,54.76,0,0,0,215.7,449C213.44,446.09,210.2,441.57,210.2,439.67Z"/><path class="cls-5" d="M155.8,377.24h15.7s-.09,4.35-.38,9.38a110.2,110.2,0,0,1-17.79-3.78A27.41,27.41,0,0,1,155.8,377.24Z"/><path class="cls-5" d="M212.85,382.53a72.85,72.85,0,0,1-17.26,4.29v-8.49s17.16-5.84,17.89-3.65C213.89,375.91,213.38,379.57,212.85,382.53Z"/><path class="cls-4" d="M214.21,381.25c-29.94,12.42-63.52,0-63.52,0s9.49-10.95,5.11-46.73c-1.72-14.19-1.41-22.86-.38-28.17,1.57-8.07,4.76-8.34,4.76-8.34l43.08-5.11a24.71,24.71,0,0,0-.2,7c1,14.54,7.5,42.65,7.5,42.65C221.52,375.78,214.21,381.25,214.21,381.25Z"/><path class="cls-3" d="M191.21,185.56c-1.11,1.67-1.78,5.08-2.19,9a170.73,170.73,0,0,0-.37,20.57s-22.27,12.05-17.16-3.65a39.21,39.21,0,0,0-2.55-29.2S194.86,180.08,191.21,185.56Z"/><path class="cls-5" d="M191.21,185.56c-1.11,1.67-1.78,5.08-2.19,9A16.44,16.44,0,0,1,172.38,192a36.83,36.83,0,0,0-3.44-9.76S194.86,180.08,191.21,185.56Z"/><circle class="cls-3" cx="182.81" cy="178.62" r="16.43"/><path class="cls-5" d="M203.06,299.9c-2,5.5-3.82,9.8-3.82,9.8s-17.16-14.61-30.3-7.67c-6.2,3.27-10.93,4.68-13.52,4.32,1.57-8.07,4.76-8.34,4.76-8.34l43.08-5.11A24.71,24.71,0,0,0,203.06,299.9Z"/><path class="cls-4" d="M199.24,308.23s-17.16-14.6-30.3-7.66-19.71,5.48-13.14-3.29,15.33-27.39,8.76-41.26-9.13-35.78-4-41.62,9.86-12.42,9.86-13.87c0,0,18.62,13.5,22.27,19A71.7,71.7,0,0,1,197.34,230c1,2.66,2.12,5.59,3.19,8.54a108.69,108.69,0,0,1,4.08,14.17,119.36,119.36,0,0,1,2.47,18.65,17.59,17.59,0,0,0,.93,5.08C210.2,282.31,199.24,308.23,199.24,308.23Z"/><path class="cls-11" d="M191.58,210l-.43,7.62-21.08-16.06s-.4-3.23,5.07,0S191.58,210,191.58,210Z"/><path class="cls-5" d="M204.6,252.74c-19.28.35-41.14-21.18-41.14-21.18-7.66-20.44,18.26-16.06,18.26-16.06S183.85,221,197.34,230c1,2.66,2.12,5.59,3.19,8.54A107.11,107.11,0,0,1,204.6,252.74Z"/><path class="cls-4" d="M163.46,229s24.83,24.46,44.91,20.81c0,0,23.73-5.84,33.23-19a98.41,98.41,0,0,1-10.23-10.58s-12.78,20.44-29.94,9.85-19.71-17.16-19.71-17.16S155.8,208.56,163.46,229Z"/><path class="cls-5" d="M189.18,153.59c-4.16-1.18-8.71-1.72-12.76-.21-6.7,2.53-10.84,5.44-16.07,10.36-4.12,3.88-8.65,10.65-13.5,13.57s-9.58,6.71-11.47,12.05c-2.66,7.51,1,15.59,2.63,23.38A47,47,0,0,1,135.94,239c-3.19,8.35-8.89,16.51-7.46,25.33,1.5,9.44,11,15.84,20.39,17.45,6.41,1.11,13.35.43,18.8-3.12a11.36,11.36,0,0,0,3.79-3.73c2.32-4,.8-9.07-.64-13.49-2.93-9-5.25-18.28-7.58-27.51-1.35-5.38-2.69-11.16-.78-16.38s6.54-8.65,11.42-11c1.91-.92,3.94-1.76,5.38-3.32a9.12,9.12,0,0,0,1.79-3.05c2.46-6.55-.29-15,4.45-20.14,2.4-2.61,6.12-3.52,9.09-5.48,3.75-2.47,7.46-8.31,6.75-13C200.57,156.5,193.49,154.81,189.18,153.59Z"/><path class="cls-12" d="M188.45,153.22c-4.17-1.18-8.72-1.72-12.77-.21-6.7,2.53-10.83,5.44-16.06,10.36-4.12,3.89-8.65,10.66-13.5,13.57s-9.59,6.71-11.48,12.05c-2.65,7.52,1,15.59,2.63,23.39a46.91,46.91,0,0,1-2.06,26.27c-3.19,8.34-8.89,16.5-7.46,25.32,1.49,9.44,11,15.84,20.38,17.46,6.42,1.1,13.36.42,18.81-3.12a11.55,11.55,0,0,0,3.79-3.73c2.32-4,.79-9.08-.64-13.49-2.94-9-5.26-18.29-7.58-27.51-1.35-5.39-2.7-11.17-.78-16.39s6.54-8.65,11.41-11c1.91-.93,4-1.77,5.38-3.33a9.32,9.32,0,0,0,1.8-3.05c2.46-6.54-.3-15,4.44-20.14,2.41-2.61,6.12-3.52,9.09-5.48,3.76-2.47,7.46-8.31,6.76-13C199.84,156.14,192.76,154.44,188.45,153.22Z"/><path class="cls-13" d="M64.63,390.67S57,364.86,66.06,345.84a40.85,40.85,0,0,0,3.3-25.59,69.19,69.19,0,0,0-3.62-12"/><path class="cls-14" d="M71.35,296.23c0,3.17-5.74,12.34-5.74,12.34s-5.74-9.18-5.74-12.34a5.74,5.74,0,1,1,11.48,0Z"/><path class="cls-14" d="M80.82,313.76C79.1,316.41,69.3,321,69.3,321s.18-10.82,1.9-13.47a5.74,5.74,0,0,1,9.62,6.23Z"/><path class="cls-14" d="M80.41,343.72c-2.83,1.42-13.61.44-13.61.44s5.62-9.25,8.44-10.67a5.74,5.74,0,0,1,5.17,10.23Z"/><path class="cls-14" d="M75,366.32c-2.55,1.88-13.33,2.73-13.33,2.73s4-10.06,6.51-11.95A5.74,5.74,0,0,1,75,366.32Z"/><path class="cls-14" d="M57.27,321.62c2.3,2.21,12.85,4.5,12.85,4.5s-2.59-10.51-4.86-12.71a5.74,5.74,0,1,0-8.43,7.78A5.93,5.93,0,0,0,57.27,321.62Z"/><path class="cls-14" d="M51.27,348.13c2.83,1.42,13.61.44,13.61.44s-5.62-9.25-8.44-10.67a5.74,5.74,0,0,0-5.61,10l.44.22Z"/><path class="cls-14" d="M49,374.69c2.55,1.88,13.33,2.73,13.33,2.73s-4-10.06-6.51-11.94A5.74,5.74,0,0,0,49,374.69Z"/><path class="cls-14" d="M276,464.34a6.75,6.75,0,0,0,2.2-3.32,3,3,0,0,0-1.54-3.38c-1.41-.54-2.92.44-4.06,1.43s-2.46,2.12-4,1.91a6,6,0,0,0,1.86-5.63,2.35,2.35,0,0,0-.51-1.15c-.79-.84-2.21-.48-3.15.18-3,2.1-3.81,6.15-3.83,9.8a18.52,18.52,0,0,1-.06-4c0-1.33-.38-2.87-1.51-3.57a4.62,4.62,0,0,0-2.3-.55,4.79,4.79,0,0,0-3.75,1.07c-1.15,1.22-.84,3.27.15,4.59a14.76,14.76,0,0,0,3.88,3.11,8.49,8.49,0,0,1,2.78,2.65,3.35,3.35,0,0,1,.21.47h8.4A23.27,23.27,0,0,0,276,464.34Z"/><path class="cls-14" d="M388.91,245.81s-24,24-10.46,59.63-23.23,94.85-23.23,94.85l1.15-.18c49.3-8.71,73.8-65.09,46.38-107C392.54,277.55,384.17,259.29,388.91,245.81Z"/><path class="cls-5" d="M388.91,246.21s-24,24-10.46,59.62-23.23,94.86-23.23,94.86l1.15-.19c49.28-8.7,73.77-65.11,46.36-107C392.54,278,384.17,259.66,388.91,246.21Z"/><path class="cls-15" d="M388.91,245.81s-13.55,29.43,0,53.43,2.29,91.37-33.69,101.05"/><path class="cls-14" d="M431.66,342.9s-27.39-4.36-29.89,20.18-52.67,28-52.67,28l.94.62c41.43,27.2,81,17.32,75.06-18.79C422.88,359.45,423.06,346,431.66,342.9Z"/><path class="cls-15" d="M431.66,342.9s-21.27,4.66-19.51,24-31.58,42.51-63,24.15"/><path class="cls-16" d="M407.56,391.93S386,387.6,380.23,381.87s-31.64-15.82-34.51-8.61-38.84,31.61-14.41,35.93,57.53,5.74,64.72,2.87S407.56,391.93,407.56,391.93Z"/><path class="cls-17" d="M331.31,406.54c24.46,4.31,57.53,5.74,64.72,2.87,5.48-2.19,9.29-12.72,10.79-17.62l.72.15S403.22,409.2,396,412.08s-40.27,1.44-64.72-2.87c-7.05-1.25-9.07-4.17-8.31-7.88C323.62,403.73,326.08,405.59,331.31,406.54Z"/><path class="cls-16" d="M47.51,389.21s12.86-.39,16.73-3.15S84,380,85,384.43s19.32,22,4.78,22.11S56,404.28,52.17,402,47.51,389.21,47.51,389.21Z"/><path class="cls-17" d="M90,405c-14.52.12-33.73-2.26-37.59-4.59-3-1.79-4.12-8.22-4.51-11.2h-.43s.81,10.37,4.68,12.73,23.08,4.73,37.59,4.59c4.19,0,5.64-1.53,5.56-3.73C94.76,404.15,93.16,405,90,405Z"/></g></g></svg>