<svg xmlns="http://www.w3.org/2000/svg" xmlns:xlink="http://www.w3.org/1999/xlink" viewBox="0 0 577.77 502.63"><defs><style>.cls-1{fill:#f6f9fc;}.cls-2,.cls-25{fill:#efefef;}.cls-2{opacity:0.5;}.cls-3{fill:#319bff;}.cls-4,.cls-5{fill:#8dccff;}.cls-15,.cls-16,.cls-4,.cls-6{fill-rule:evenodd;}.cls-20,.cls-28,.cls-29,.cls-6,.cls-7,.cls-8{fill:none;}.cls-6,.cls-7,.cls-8{stroke:#8dccff;}.cls-28,.cls-29,.cls-6,.cls-7,.cls-8{stroke-miterlimit:10;}.cls-8{font-size:15.32px;font-family:Roboto-Bold, Roboto;font-weight:700;}.cls-16,.cls-9{fill:#890606;}.cls-10{fill:#08476b;}.cls-11{fill:#002c47;}.cls-12{fill:#195f8e;}.cls-13{fill:#ed5b3a;}.cls-14{fill:#f48b56;}.cls-15{fill:url(#linear-gradient);}.cls-17{fill:url(#linear-gradient-2);}.cls-18{fill:#ffb975;}.cls-19{fill:#444343;}.cls-20,.cls-24,.cls-28{stroke:#fff;}.cls-20,.cls-24{stroke-linecap:round;stroke-linejoin:round;}.cls-20{stroke-width:3px;}.cls-21{fill:url(#linear-gradient-3);}.cls-22{fill:url(#linear-gradient-4);}.cls-23{fill:url(#linear-gradient-5);}.cls-24{fill:#fff;}.cls-26{fill:url(#linear-gradient-6);}.cls-27{fill:#d1d1d1;}.cls-28,.cls-29{stroke-width:2px;}.cls-29{stroke:#ffbe08;}</style><linearGradient id="linear-gradient" x1="266.74" y1="246.23" x2="290.38" y2="246.23" gradientUnits="userSpaceOnUse"><stop offset="0.01" stop-color="#fce72b"/><stop offset="1" stop-color="#fcae00"/></linearGradient><linearGradient id="linear-gradient-2" x1="379.66" y1="333.02" x2="449.64" y2="333.02" gradientUnits="userSpaceOnUse"><stop offset="0" stop-color="#0a4f8c"/><stop offset="1" stop-color="#0a384f"/></linearGradient><linearGradient id="linear-gradient-3" x1="289.61" y1="185.53" x2="486.31" y2="185.53" gradientUnits="userSpaceOnUse"><stop offset="0" stop-color="#1285fa"/><stop offset="0.35" stop-color="#1288fa"/><stop offset="0.59" stop-color="#1291fa"/><stop offset="0.8" stop-color="#12a0fa"/><stop offset="0.98" stop-color="#12b5fa"/><stop offset="1" stop-color="#12b8fa"/></linearGradient><linearGradient id="linear-gradient-4" x1="442.31" y1="194.64" x2="449.42" y2="194.64" xlink:href="#linear-gradient-2"/><linearGradient id="linear-gradient-5" x1="351.64" y1="175.54" x2="375.96" y2="175.54" xlink:href="#linear-gradient-2"/><linearGradient id="linear-gradient-6" x1="113.65" y1="332.69" x2="198.65" y2="332.69" xlink:href="#linear-gradient-2"/></defs><title>img-1</title><g id="Layer_2" data-name="Layer 2"><g id="Layer_1-2" data-name="Layer 1"><path class="cls-1" d="M.26,258C2,277.36,13,294.89,19.66,313.34a131.19,131.19,0,0,1,2.56,81.47c-1.6,5.49-3.57,11-3.57,16.64,0,19.4,22.11,32.28,42.2,40.85a770,770,0,0,0,158.82,48c17.83,3.36,40.1,4.82,51.38-7.85,5.41-6.08,6.72-14,10.7-20.84,10.14-17.39,34.81-24.16,56.95-28a694.53,694.53,0,0,1,80.71-9.29c27.24-1.53,58.17-2.87,76.23-20.75,11.47-11.38,14.81-27.07,15.27-41.89,1.5-48.62-21.73-101.23,8.08-143.34,12.51-17.66,32.92-30.56,45.33-48.27,18-25.66,16.42-58.26,4.25-85.61S534.86,43.83,513.63,21c-7.06-7.54-14.55-15.38-25.11-18.87-11-3.64-23.42-2-35.19-.25-53.52,7.81-109.08,16.32-154,43.16-22.3,13.33-40.92,30.62-60.82,46.52C195.59,126,145.8,157.68,89.07,171.25,43,182.26-3.91,212,.26,258Z"/><path class="cls-2" d="M326.1,86.39c52.36,46.73,154.82,8.9,148.09,124.9-6.62,114.23-108.57,56-165.65,89.35-56,32.72-199.41,35.66-193.71-109.17C119.28,78.64,240.22,9.73,326.1,86.39Z"/><path class="cls-2" d="M359.71,105.94c34,61.4,143.21,59.49,98.59,166.77-43.94,105.65-121,17-185.86,29.69-63.62,12.42-200-32.13-146.84-167C167,30.39,303.94,5.24,359.71,105.94Z"/><path class="cls-3" d="M258.94,150.1a7.09,7.09,0,0,1,2.73,4.29H258a4.18,4.18,0,0,0-1.67-1.91,4.88,4.88,0,0,0-2.68-.71,5.13,5.13,0,0,0-2.7.7,4.62,4.62,0,0,0-1.83,2,6.76,6.76,0,0,0-.65,3.05,6,6,0,0,0,1.49,4.32,5.36,5.36,0,0,0,4.06,1.55,4.93,4.93,0,0,0,3.26-1.12,5.27,5.27,0,0,0,1.77-3.13h-6v-2.52H262V160a8.26,8.26,0,0,1-1.47,3.22,7.79,7.79,0,0,1-2.85,2.36,8.73,8.73,0,0,1-4,.89,9,9,0,0,1-4.59-1.14,7.77,7.77,0,0,1-3.08-3.17,10.62,10.62,0,0,1,0-9.33,7.9,7.9,0,0,1,3.07-3.18,8.87,8.87,0,0,1,4.57-1.15A8.75,8.75,0,0,1,258.94,150.1Z"/><path class="cls-3" d="M279.37,162.12a7.71,7.71,0,0,1-3.19,3.11,10.43,10.43,0,0,1-5,1.11h-6.28V148.69h6.28a10.55,10.55,0,0,1,5,1.09,7.56,7.56,0,0,1,3.19,3.07,10.32,10.32,0,0,1,0,9.27Zm-4-.43a6.46,6.46,0,0,0,0-8.42,6.11,6.11,0,0,0-4.41-1.5h-2.45v11.42h2.45A6.11,6.11,0,0,0,275.33,161.69Z"/><path class="cls-3" d="M287,159.79v6.55h-3.53V148.69h6.43a6.63,6.63,0,0,1,4.71,1.5,5.34,5.34,0,0,1,1.59,4.08,5.19,5.19,0,0,1-1.64,4,6.66,6.66,0,0,1-4.66,1.5Zm5.62-5.52a2.7,2.7,0,0,0-.72-2,3.35,3.35,0,0,0-2.38-.7H287V157h2.52C291.56,157,292.59,156.07,292.59,154.27Z"/><path class="cls-3" d="M308,166.34l-4.12-6.87h-1.55v6.87h-3.53V148.69h6.73a6.61,6.61,0,0,1,4.68,1.5,5.6,5.6,0,0,1,.5,7.3,5.48,5.48,0,0,1-3.21,1.8l4.4,7.05Zm-5.67-9.3h2.9c2,0,3-.89,3-2.67a2.64,2.64,0,0,0-.74-2,3.15,3.15,0,0,0-2.28-.71h-2.9Z"/><path class="cls-4" d="M357.31,157.38h-2.53c-1,0-1.48-.36-1.65-1.37-.22-1.32-.41-2.64-.56-4a1.92,1.92,0,0,0-1.14-1.66c-1.83-1.08-3.21-.68-4.61.68-.63.63-1.45,1.06-2.15,1.64a1,1,0,0,1-1.61-.15c-1.36-1.38-2.72-2.74-4.1-4.1a1,1,0,0,1-.12-1.48c.9-1.23,1.79-2.47,2.73-3.66a1.73,1.73,0,0,0,.22-1.69c-.46-2.07-1.72-2.84-3.72-2.82a16.6,16.6,0,0,1-2.31-.3c-1.07-.13-1.5-.57-1.5-1.62,0-1.74,0-3.49,0-5.23a1.31,1.31,0,0,1,1.21-1.49c1.53-.24,3.06-.49,4.6-.68.54-.07.88-.23,1-.8a.51.51,0,0,1,.11-.25c1.23-1.72.77-3.17-.62-4.57a23.27,23.27,0,0,1-1.64-2.14,1.1,1.1,0,0,1,.05-1.6c1.38-1.4,2.76-2.79,4.16-4.16a1.18,1.18,0,0,1,1.69,0c1.19.9,2.38,1.8,3.59,2.67a1.44,1.44,0,0,0,1,.32,14.28,14.28,0,0,0,2.74-1.14c.28-.16.36-.75.43-1.15.22-1.35.39-2.71.58-4.06a1.36,1.36,0,0,1,1.5-1.32c1.77,0,3.55,0,5.33,0,1,0,1.34.35,1.5,1.39l.72,4.59c0,.15,0,.4.1.44a20.27,20.27,0,0,0,2.9,1.22c.39.1,1-.28,1.38-.56,1.13-.78,2.21-1.62,3.29-2.45a1.13,1.13,0,0,1,1.67.1c1.35,1.33,2.68,2.68,4,4a1.11,1.11,0,0,1,.14,1.65c-.92,1.21-1.81,2.45-2.74,3.65-.41.53-.6,1-.16,1.59a.66.66,0,0,1,.11.26c.35,2.26,2.06,2.5,3.87,2.64.8.06,1.59.23,2.39.35a1.23,1.23,0,0,1,1.16,1.33q0,2.76,0,5.52A1.39,1.39,0,0,1,379,138.5c-1.51.22-3,.37-4.52.62a1.57,1.57,0,0,0-.91.7c-.31.53-.41,1.19-.74,1.7a1.5,1.5,0,0,0,.26,2c.89,1.09,1.68,2.24,2.55,3.34a1.12,1.12,0,0,1-.06,1.66l-4.1,4.1a1.08,1.08,0,0,1-1.64.08c-1.19-.94-2.44-1.82-3.64-2.75a1.14,1.14,0,0,0-1.45-.18,2,2,0,0,1-.68.31c-1.84.26-2.17,1.57-2.27,3.11-.06,1-.23,1.91-.38,2.86a1.44,1.44,0,0,1-1.61,1.34C359,157.4,358.15,157.38,357.31,157.38Zm-.1-27.66a4.45,4.45,0,0,0-4.55,4.61,4.63,4.63,0,1,0,9.26,0A4.5,4.5,0,0,0,357.21,129.72Z"/><path class="cls-5" d="M255,106.32h0a20.86,20.86,0,0,0-5.53-14.17l-.06-.1-.44-.45-.15-.17-.1-.08a16.21,16.21,0,0,0-1.23-1.11l-.41-.35c-.37-.3-.75-.58-1.14-.85-.22-.15-.44-.3-.67-.44s-.67-.42-1-.61-.58-.32-.88-.47l-.37-.18c-.51-.24-1-.47-1.56-.67l-.59-.21c-.43-.15-.87-.29-1.32-.41s-.74-.2-1.11-.28-.5-.1-.75-.15c-.53-.09-1-.17-1.58-.23l-.28,0c-.62-.06-1.25-.09-1.87-.09h0a21,21,0,0,0-15.53,35.22s0,.1.08.14a22,22,0,0,0,2.06,1.93l.07.06c.48.4,1,.76,1.49,1.11l.23.16c.47.31,1,.6,1.45.88l.4.21c.46.24.94.48,1.42.68l.5.21c.48.19,1,.37,1.46.53l.49.14c.51.15,1,.29,1.54.4l.4.08c.59.11,1.18.2,1.78.27h.16a20,20,0,0,0,2.05.1,21.35,21.35,0,0,0,3.1-.23l.24,0c.43-.07.85-.15,1.27-.24A21.07,21.07,0,0,0,255,106.32Zm-6.47,11.82a20.88,20.88,0,0,0-2.86-2.3,21.2,21.2,0,0,0,2.23-8.36h4.77A18.73,18.73,0,0,1,248.5,118.14ZM245.59,121c-.41.33-.84.65-1.28.94a18.65,18.65,0,0,1-7.46,2.92,19,19,0,0,0,1.67-1h0a21,21,0,0,0,5.95-6,18.87,18.87,0,0,1,2.47,2c-.38.37-.77.71-1.18,1Zm-15.3,3.73c-.46-.09-.91-.21-1.37-.33l-.38-.1c-.44-.13-.88-.29-1.31-.46l-.39-.14c-.39-.16-.77-.34-1.15-.53l-.52-.25c-.31-.16-.61-.35-.91-.53s-.46-.26-.68-.41-.45-.32-.68-.49-.55-.39-.81-.6l-.49-.43-.7-.64a18.17,18.17,0,0,1,2.48-2,21.22,21.22,0,0,0,7.59,7h-.07ZM215.2,107.51H220a21.08,21.08,0,0,0,2.25,8.33,21.19,21.19,0,0,0-2.87,2.31A18.65,18.65,0,0,1,215.2,107.51Zm4.11-13a20.37,20.37,0,0,0,2.87,2.3,20.86,20.86,0,0,0-2.23,8.36h-4.78A18.71,18.71,0,0,1,219.31,94.55Zm3-2.92a17.26,17.26,0,0,1,1.41-1h0c.48-.31,1-.6,1.48-.87l.13-.06A18.48,18.48,0,0,1,230.19,88l.26,0,.46-.07c-.55.3-1.1.62-1.62,1a21.15,21.15,0,0,0-6,6,19.56,19.56,0,0,1-2.47-2c.41-.4.84-.77,1.28-1.13Zm23.33,0c.33.26.64.55,1,.83l.37.34a18.33,18.33,0,0,1-2.49,2,21.19,21.19,0,0,0-7.58-7,18.9,18.9,0,0,1,8.53,3.68Zm7,13.51h-4.77a20.91,20.91,0,0,0-2.25-8.33,20.74,20.74,0,0,0,2.88-2.32A18.62,18.62,0,0,1,252.62,105.18ZM235,89.48A18.84,18.84,0,0,1,242.47,96a18.71,18.71,0,0,1-7.42,2Zm-2.29,8.59a18.7,18.7,0,0,1-7.45-2,18.86,18.86,0,0,1,5.27-5.3,17.81,17.81,0,0,1,2.17-1.23Zm0,2.32v4.81h-10.5A18.58,18.58,0,0,1,224.16,98,21,21,0,0,0,232.75,100.39Zm-10.49,7.12h10.5v4.81a21,21,0,0,0-8.57,2.36A18.73,18.73,0,0,1,222.26,107.51Zm10.5,7.12v8.58a18.84,18.84,0,0,1-7.43-6.55A18.71,18.71,0,0,1,232.76,114.63Zm2.3,0a18.7,18.7,0,0,1,7.45,2,18.69,18.69,0,0,1-5.26,5.3,20.3,20.3,0,0,1-2.18,1.23Zm0-2.32v-4.81h10.51a18.77,18.77,0,0,1-1.92,7.18A21,21,0,0,0,235.06,112.3Zm0-7.11v-4.81A21,21,0,0,0,243.62,98a18.93,18.93,0,0,1,1.94,7.16Z"/><polygon class="cls-5" points="233.92 64.5 235.64 69.79 241.2 69.79 236.7 73.06 238.42 78.35 233.92 75.08 229.42 78.35 231.14 73.06 226.63 69.79 232.2 69.79 233.92 64.5"/><polygon class="cls-5" points="233.89 148.19 232.17 142.9 226.61 142.9 231.11 139.63 229.39 134.34 233.89 137.61 238.39 134.34 236.67 139.63 241.18 142.9 235.61 142.9 233.89 148.19"/><polygon class="cls-5" points="275.75 106.36 270.46 108.08 270.46 113.64 267.19 109.14 261.9 110.86 265.17 106.36 261.9 101.86 267.19 103.58 270.46 99.08 270.46 104.64 275.75 106.36"/><polygon class="cls-5" points="192.06 106.33 197.35 104.61 197.35 99.05 200.62 103.55 205.91 101.83 202.64 106.33 205.91 110.83 200.62 109.11 197.35 113.61 197.35 108.05 192.06 106.33"/><polygon class="cls-5" points="263.51 76.76 260.98 81.72 264.92 85.66 259.42 84.79 256.89 89.74 256.02 84.25 250.53 83.38 255.49 80.85 254.61 75.36 258.55 79.29 263.51 76.76"/><polygon class="cls-5" points="204.31 135.93 206.83 130.97 202.9 127.03 208.39 127.9 210.92 122.95 211.79 128.44 217.28 129.31 212.33 131.84 213.2 137.34 209.26 133.4 204.31 135.93"/><polygon class="cls-5" points="263.49 135.95 258.53 133.42 254.59 137.35 255.47 131.86 250.51 129.33 256 128.46 256.87 122.97 259.4 127.92 264.89 127.05 260.96 130.99 263.49 135.95"/><polygon class="cls-5" points="204.32 76.74 209.28 79.27 213.22 75.33 212.35 80.83 217.31 83.36 211.81 84.23 210.94 89.72 208.41 84.77 202.92 85.64 206.85 81.7 204.32 76.74"/><path class="cls-6" d="M483.29,94c0-1-.24-1.42-1.31-1.62-5.59-1-11.15-2.11-16.72-3.2a4,4,0,0,0-1.54,0c-5.62,1.1-11.24,2.2-16.87,3.23-.92.17-1.16.53-1.15,1.43.05,4-.05,18.41,0,21.74a15.71,15.71,0,0,0,4.19,10.9c3.88,4.31,8.73,7.21,14,9.55a1.29,1.29,0,0,0,1.18.07c6-2.75,11.66-6.08,15.65-11.58a13.3,13.3,0,0,0,2.64-8.31C483.19,108.81,483.25,101.4,483.29,94Z"/><polyline class="cls-6" points="455.52 111.75 463 118.93 475.99 101.92"/><path class="cls-4" d="M119.94,104.17h1.15a3.92,3.92,0,0,1,4,4l0,19.88a3.9,3.9,0,0,1-4,4l-9.28,0-15.66,0a3.92,3.92,0,0,1-4-4q0-9.93,0-19.86a3.82,3.82,0,0,1,2.3-3.66,3.75,3.75,0,0,1,1.74-.35h1.08v-4a11.35,11.35,0,0,1,22.47-2.33,14.43,14.43,0,0,1,.22,2.28c0,1.22,0,2.44,0,3.66Zm-11.36,2.22-12.39,0a1.74,1.74,0,0,0-1.88,1.89l0,19.64a1.75,1.75,0,0,0,1.93,1.9l24.6,0h.31a1.72,1.72,0,0,0,1.74-1.75l0-20a1.6,1.6,0,0,0-.92-1.52,2.4,2.4,0,0,0-1-.2C116.85,106.37,112.71,106.39,108.58,106.39Zm9.16-2.22c0-.1,0-.16,0-.23,0-1.3,0-2.6,0-3.9a10,10,0,0,0-.27-2.11,9.15,9.15,0,0,0-18,1.68c-.07,1.47,0,3,0,4.42l0,.16Z"/><path class="cls-4" d="M105.32,121.67c0-.75,0-1.5,0-2.25a.54.54,0,0,0-.16-.34,5.29,5.29,0,0,1-1.83-5.69,5.23,5.23,0,0,1,4.45-4,5.46,5.46,0,0,1,6.28,4.66,5.35,5.35,0,0,1-2,5,.48.48,0,0,0-.18.41c0,1.37,0,2.74,0,4.11a3.3,3.3,0,1,1-6.59,0C105.32,123,105.33,122.3,105.32,121.67Zm2.2-.6v2.51a1.1,1.1,0,1,0,2.2,0c0-1.58,0-3.16,0-4.74a1.29,1.29,0,0,1,.67-1.22,3.28,3.28,0,0,0,1.44-3.54,3.33,3.33,0,0,0-2.86-2.51,3.28,3.28,0,0,0-3.46,2.2,3.25,3.25,0,0,0,1.38,3.87,1.22,1.22,0,0,1,.64,1.15C107.5,119.53,107.52,120.3,107.52,121.07Z"/><path class="cls-4" d="M305.93,336.17v3.76c-.34.77-1,.52-1.6.52H256.07c-.54,0-1.19.21-1.49-.52v-3.76c.88-1.78,1.73-3.58,2.64-5.34a4.15,4.15,0,0,0,.46-2q0-13.38,0-26.77c0-3.77,2-5.73,5.72-5.73q16.89,0,33.78,0c3.69,0,5.66,2,5.66,5.67,0,8.23,0,16.46,0,24.69a14.16,14.16,0,0,0,.85,5.85c.24.57.35,1.18-.42,1.41s-.91-.31-1.11-.86c-.81-2.26-.81-2.25-3.17-2.25q-19.35,0-38.71,0a1.66,1.66,0,0,0-1.82,1.12c-.55,1.31-1.25,2.55-1.88,3.81a5.28,5.28,0,0,0-.33.73c-.52,1.77-.11,2.32,1.7,2.32q22.56,0,45.14,0c.44,0,1.13.37,1.28-.51s-.34-1-1.12-1q-12.57,0-25.15,0h-18.5c-.31,0-.61,0-.92,0-.52,0-.92-.26-.94-.8s.39-.81.9-.86c.3,0,.61,0,.92,0h44.68C304.84,335.6,305.57,335.37,305.93,336.17Zm-25.67-7c6.54,0,13.09,0,19.64,0,.9,0,1.25-.16,1.25-1.17,0-8.77,0-17.54,0-26.31,0-2.52-1.23-3.73-3.74-3.73H263.14c-2.51,0-3.75,1.23-3.75,3.73,0,8.77,0,17.54,0,26.31,0,1,.34,1.18,1.25,1.17C267.16,329.16,273.71,329.18,280.26,329.18Z"/><path class="cls-4" d="M280.26,300.25h17.68c1.55,0,1.65.1,1.65,1.62q0,10,0,20.1a4.34,4.34,0,0,1-.07,1,.72.72,0,0,1-.77.56A.7.7,0,0,1,298,323a7.27,7.27,0,0,1-.07-1.14c0-6.28,0-12.56,0-18.84,0-.87-.19-1.19-1.14-1.19q-16.53.06-33.08,0c-1,0-1.2.32-1.19,1.24,0,7,0,13.94,0,20.91,0,1,.3,1.27,1.29,1.26q16.73,0,33.43,0h.92c.62,0,1.37,0,1.36.82s-.75.8-1.37.8q-17.93,0-35.84,0c-1,0-1.43-.36-1.43-1.41q0-11.9,0-23.78c0-1.05.41-1.4,1.44-1.4C268.31,300.26,274.28,300.25,280.26,300.25Z"/><path class="cls-7" d="M92.58,321.73h6.68c0-.14,0-.27,0-.41a11,11,0,0,1,11-10.58V273.4h-.41a11,11,0,0,1-10.59-11H92.58v.41a11,11,0,0,1-11,10.59v37.34H82A11,11,0,0,1,92.58,321.73Z"/><path class="cls-7" d="M99.27,321.32c0,.14,0,.27,0,.41h11v-11A11,11,0,0,0,99.27,321.32Z"/><path class="cls-7" d="M92.58,321.73a11,11,0,0,0-10.58-11h-.41v11Z"/><path class="cls-7" d="M109.85,273.39h.41v-11h-11A11,11,0,0,0,109.85,273.39Z"/><path class="cls-7" d="M92.58,262.81v-.41h-11v11A11,11,0,0,0,92.58,262.81Z"/><path class="cls-7" d="M96.27,281.55a10.45,10.45,0,1,0,10,10.83A10.44,10.44,0,0,0,96.27,281.55Z"/><text class="cls-8" transform="translate(91.4 287.45) rotate(90)">$</text><polyline class="cls-7" points="81.59 266.32 76.39 266.32 76.39 258.48 115.37 258.48 115.37 266.32 110.26 266.32"/><rect class="cls-9" x="290.66" y="196.34" width="3.83" height="14.04"/><rect class="cls-9" x="266.02" y="196.34" width="3.83" height="14.04"/><path class="cls-10" d="M278.56,246.23a56.94,56.94,0,0,1-51.41-32.73,4.8,4.8,0,0,0-.25,1.52v62.43a4.61,4.61,0,0,0,4.59,4.64h94.14a4.62,4.62,0,0,0,4.6-4.64V215a4.8,4.8,0,0,0-.26-1.52A56.94,56.94,0,0,1,278.56,246.23Z"/><path class="cls-11" d="M278.56,259.48c22.66,0,42.23-18.31,51.41-44.83-.62-2.49-2.33-4.27-4.34-4.27H231.49c-2,0-3.72,1.78-4.34,4.27C236.33,241.17,255.9,259.48,278.56,259.48Z"/><path class="cls-12" d="M278.56,246.23A56.94,56.94,0,0,0,330,213.5a4.59,4.59,0,0,0-4.34-3.12H231.49a4.59,4.59,0,0,0-4.34,3.12A56.94,56.94,0,0,0,278.56,246.23Z"/><path class="cls-13" d="M289.9,196.4H270.61a4.6,4.6,0,0,1-4.39-3.28A13,13,0,0,0,266,196v.72a4.61,4.61,0,0,0,4.59,4.64H289.9a4.62,4.62,0,0,0,4.59-4.64V196a13,13,0,0,0-.2-2.92A4.6,4.6,0,0,1,289.9,196.4Z"/><path class="cls-14" d="M292,191.4H268.54a2.09,2.09,0,0,0-2.32,1.72,4.6,4.6,0,0,0,4.39,3.28H289.9a4.6,4.6,0,0,0,4.39-3.28A2.1,2.1,0,0,0,292,191.4Z"/><path class="cls-15" d="M286.67,241.7h.82a2.83,2.83,0,0,1,2.87,2.89q0,7.2,0,14.39a2.81,2.81,0,0,1-2.86,2.88l-6.65,0H269.65a2.82,2.82,0,0,1-2.81-2.18,3.25,3.25,0,0,1-.08-.69q0-7.2,0-14.38a2.76,2.76,0,0,1,1.65-2.65,2.54,2.54,0,0,1,1.24-.26h.78v-.22c0-.88,0-1.77,0-2.65a8.13,8.13,0,0,1,16.11-1.69,10,10,0,0,1,.15,1.65c0,.88,0,1.77,0,2.65Zm-1.58,0a.5.5,0,0,0,0-.17c0-.94,0-1.88,0-2.82a7.21,7.21,0,0,0-.2-1.53A6.54,6.54,0,0,0,272,238.4c-.05,1.06,0,2.14,0,3.2a.5.5,0,0,0,0,.12Z"/><path class="cls-16" d="M276.73,253.2c0-.42,0-.84,0-1.26a.31.31,0,0,0-.09-.2,3,3,0,0,1-1-3.2,2.94,2.94,0,0,1,2.48-2.26,3.05,3.05,0,0,1,3.51,2.63,3,3,0,0,1-1.09,2.81.27.27,0,0,0-.1.23v2.32a1.84,1.84,0,1,1-3.68,0Z"/><polygon class="cls-17" points="379.66 224.55 389.14 443.11 410.64 443.11 412.83 248.19 425.14 443.11 449.64 443.11 447.98 222.94 379.66 224.55"/><path class="cls-18" d="M411.14,73.69l-.83-24.26a10.63,10.63,0,0,1-9.67,6.74h-19c0,2.87-.09,12.53-.09,21.73C404.44,86.83,411.14,73.69,411.14,73.69Z"/><path class="cls-18" d="M416,93.06c-.17,9.77-16.41,8.86-16.41,8.86v11.49l24.09.2v-49L416,67S416.14,83.29,416,93.06Z"/><path class="cls-19" d="M406.11,40c-26.67-1.63-24.47,15.33-24.47,15.33v.86h19a10.63,10.63,0,0,0,9.67-6.74l.83,24.26s-6.7,13.14-29.59,4.21c0,6.13,0,12,.09,15.6.23,9.92,6.62,8.42,6.62,8.42h11.31s16.24.91,16.41-8.86S416,67,416,67l7.68-2.35v-.87C423.66,46.23,417.48,40.68,406.11,40Z"/><path class="cls-18" d="M430.33,72a6.67,6.67,0,1,1-6.67-6.74A6.71,6.71,0,0,1,430.33,72Z"/><path class="cls-20" d="M398,87.84s7.66,1.69,10.5-4.71"/><path class="cls-18" d="M275.31,188.91s-5.14,2.45-4.53,9.46c.31,3.62,4.08,9.79,13.65,6.83,5.13-1.59,6.19-6.13,6.31-9.25h3L289.61,185Z"/><path class="cls-21" d="M486.31,178.81s-17-30-26.67-49.19-23.33-16-23.33-16H381.64a24,24,0,0,0-10.33,7.92c-4.67,6.07-29,49.19-29,49.19L289.61,185l5.7,15.34L351.64,196,375,172.74l1.66,51.88L448,222.94l1.44-48.9-7.11-7.7L461,186.55l-4.06,67.14,15,3.95Z"/><path class="cls-18" d="M465,281.9c10-2.7,1.66-21.23,1.66-21.23l1-4.19-10.73-2.79-.28,4.63S455,284.59,465,281.9Z"/><polygon class="cls-22" points="442.31 166.34 447.98 222.94 449.42 174.04 442.31 166.34"/><polygon class="cls-23" points="374.98 172.74 375.95 155.14 351.64 195.94 374.98 172.74"/><polygon class="cls-24" points="412.87 125.95 408.29 119.11 408.29 119.11 408.29 119.11 403.71 125.95 407.89 132.2 403.71 140.6 408.29 195.94 408.29 195.94 408.29 195.94 408.29 195.94 412.87 140.6 408.69 132.2 412.87 125.95"/><path class="cls-18" d="M176.15,96.94s15.5.5,16-15.16,0-23.75,0-23.75,0-17.69-24-17.69-17,30.32-17,46.49v26.79h25Z"/><path class="cls-25" d="M192.37,157.58s11.28,18.7,21.28,29.31,16.5,9.1,16.5,9.1l38,3.37v-15l-32.5-11.12s-21-35.88-27-48-16.28-11.62-16.28-11.62H136.65a23.25,23.25,0,0,0-15.5,13.13l-5,11.12-22,47.51,9.16,78.83,15.84-2.53,2-69.73,6.5-17.94,1,48.26,70,1,2.5-52.4"/><polygon class="cls-26" points="128.65 222.27 113.65 443.11 135.65 443.11 161.65 249.56 161.65 443.11 186.15 443.11 198.65 223.28 128.65 222.27"/><path class="cls-19" d="M195.15,40.34c-6.25-12.13-23.87-3.79-23.87-3.79-7.36-6.82-12.63,1.77-12.63,1.77v.07a18.48,18.48,0,0,0-16.94,18.5v13.9a18.48,18.48,0,0,0,18.38,18.57c13.43,0,18.42-2.92,19-9.86.41-4.76-2.08-10.69,4.12-10.74,6.58-.06,6.17-4.92,6.17-4.92s13.75,1,14.25-10.11S195.15,40.34,195.15,40.34Z"/><path class="cls-18" d="M268.15,186.55s18.83,2.7,20.49,7.75-3.09,10.43-10.24,9.77-6.09-8.52-6.09-8.52h-4.16Z"/><path class="cls-18" d="M105.63,263.84s-2.48,22.61,9.27,20.58,2.95-22.53,2.95-22.53Z"/><polygon class="cls-27" points="127.65 174 135.9 222.27 128.65 222.27 127.65 174"/><polygon class="cls-27" points="199.85 198.02 192.37 157.58 201.15 170.88 199.85 198.02"/><line class="cls-28" x1="313.77" y1="91.21" x2="313.77" y2="106.88"/><line class="cls-28" x1="321.6" y1="99.05" x2="305.93" y2="99.05"/><line class="cls-29" x1="121.01" y1="58.39" x2="121.01" y2="74.06"/><line class="cls-29" x1="128.85" y1="66.22" x2="113.18" y2="66.22"/><line class="cls-28" x1="449.65" y1="50.56" x2="449.65" y2="66.22"/><line class="cls-28" x1="457.48" y1="58.39" x2="441.81" y2="58.39"/><line class="cls-28" x1="468.85" y1="300.23" x2="468.85" y2="315.9"/><line class="cls-28" x1="476.69" y1="308.06" x2="461.02" y2="308.06"/><line class="cls-28" x1="275.75" y1="42.72" x2="275.75" y2="58.39"/><line class="cls-28" x1="283.58" y1="50.56" x2="267.92" y2="50.56"/><line class="cls-28" x1="219.26" y1="292.4" x2="219.26" y2="308.07"/><line class="cls-28" x1="227.09" y1="300.23" x2="211.43" y2="300.23"/><line class="cls-29" x1="361.93" y1="313.52" x2="361.93" y2="329.19"/><line class="cls-29" x1="369.76" y1="321.36" x2="354.09" y2="321.36"/><line class="cls-29" x1="354.09" y1="238.4" x2="354.09" y2="254.07"/><line class="cls-29" x1="361.93" y1="246.23" x2="346.26" y2="246.23"/><line class="cls-29" x1="354.09" y1="34.89" x2="354.09" y2="50.56"/><line class="cls-29" x1="361.93" y1="42.72" x2="346.26" y2="42.72"/></g></g></svg>