<svg xmlns="http://www.w3.org/2000/svg" viewBox="0 0 291.19 84.06"><defs><style>.cls-1{fill:#aaa;}</style></defs><title>logo-grey</title><g id="Layer_2" data-name="Layer 2"><g id="Layer_1-2" data-name="Layer 1"><rect class="cls-1" y="19.53" width="64.53" height="64.53"/><polygon class="cls-1" points="18.55 0 18.55 12.86 69.73 12.86 69.73 64.53 83.08 64.53 83.08 0 18.55 0"/><path class="cls-1" d="M119.09,20.32V14h5.51v6.33Zm.4,48.95V29.81h4.74V69.27Z"/><path class="cls-1" d="M166.93,61a14,14,0,0,1-2.9,4.32,13.43,13.43,0,0,1-4.35,2.9,13.22,13.22,0,0,1-5.3,1.07H136.9V14h17.48A13.6,13.6,0,0,1,168,27.61V55.72A13.17,13.17,0,0,1,166.93,61ZM163,27.57a8.52,8.52,0,0,0-.7-3.45,8.83,8.83,0,0,0-1.9-2.81,8.69,8.69,0,0,0-2.82-1.91,8.2,8.2,0,0,0-3.45-.7h-12.3V64.56h12.3a8.52,8.52,0,0,0,3.45-.7A9,9,0,0,0,160.42,62a8.86,8.86,0,0,0,1.9-2.79,8.56,8.56,0,0,0,.7-3.46Z"/><path class="cls-1" d="M154.38,70.61H135.55v-58h18.83a14.94,14.94,0,0,1,15,15V55.72a14.74,14.74,0,0,1-1.17,5.83h0A15.47,15.47,0,0,1,165,66.3a15.14,15.14,0,0,1-4.78,3.2A14.8,14.8,0,0,1,154.38,70.61Zm-16.14-2.69h16.14a11.93,11.93,0,0,0,4.76-.94,12.16,12.16,0,0,0,3.91-2.62,12.37,12.37,0,0,0,2.69-3.9h0a11.88,11.88,0,0,0,.95-4.74V27.57a12.2,12.2,0,0,0-12.24-12.25H138.31Zm15.91-2H140.48V17.36h13.67a10,10,0,0,1,4,.81,10.59,10.59,0,0,1,3.24,2.21,10.32,10.32,0,0,1,2.19,3.23,9.78,9.78,0,0,1,.81,4V55.75a9.86,9.86,0,0,1-.81,4,10.46,10.46,0,0,1-2.2,3.23,10.83,10.83,0,0,1-3.23,2.16A10,10,0,0,1,154.15,65.92Zm-10.93-2.69h10.93a7.11,7.11,0,0,0,2.91-.59,7.89,7.89,0,0,0,2.39-1.6,7.41,7.41,0,0,0,1.62-2.37,7.26,7.26,0,0,0,.58-2.9V27.57a7.26,7.26,0,0,0-.58-2.9,7.81,7.81,0,0,0-4-4,7.58,7.58,0,0,0-2.9-.58H143.19Z"/><path class="cls-1" d="M203.73,63A11.67,11.67,0,0,1,193,70.08h-3.16a11.45,11.45,0,0,1-4.52-.92,11.33,11.33,0,0,1-3.7-2.49,11.49,11.49,0,0,1-2.49-3.7,11.2,11.2,0,0,1-.9-4.5V40.65a11.3,11.3,0,0,1,.9-4.52,11.65,11.65,0,0,1,6.19-6.19,11.3,11.3,0,0,1,4.52-.9H193a11.41,11.41,0,0,1,4.5.9,11.81,11.81,0,0,1,3.71,2.49,11.53,11.53,0,0,1,3.39,8.22v9.29H183v8.8a6.92,6.92,0,0,0,.55,2.69,6.7,6.7,0,0,0,3.64,3.64,6.53,6.53,0,0,0,2.69.54H193a6.57,6.57,0,0,0,2.69-.54,6.83,6.83,0,0,0,3.64-3.64,6.73,6.73,0,0,0,.54-2.69V56.11l4.75.77v1.63A11.59,11.59,0,0,1,203.73,63Zm-3.84-22.59a6.87,6.87,0,0,0-.54-2.69A6.89,6.89,0,0,0,195.7,34,6.87,6.87,0,0,0,193,33.5h-3.16a6.84,6.84,0,0,0-4.87,2,6.93,6.93,0,0,0-1.45,2.18,6.71,6.71,0,0,0-.55,2.69v5.86h16.89Z"/><path class="cls-1" d="M193,71.45h-3.16a13,13,0,0,1-12-7.94,12.81,12.81,0,0,1-1-5V40.65a12.9,12.9,0,0,1,1-5.06,13,13,0,0,1,6.92-6.91,12.74,12.74,0,0,1,5.06-1H193a12.68,12.68,0,0,1,5,1A12.92,12.92,0,0,1,205,35.59a12.58,12.58,0,0,1,1,5.06V51.31H184.36v7.43a5.5,5.5,0,0,0,.43,2.12A5.76,5.76,0,0,0,186,62.62a5.51,5.51,0,0,0,1.75,1.18,5.22,5.22,0,0,0,2.14.43H193a5.2,5.2,0,0,0,2.13-.43,5.51,5.51,0,0,0,1.75-1.18,5.79,5.79,0,0,0,1.19-1.74,5.43,5.43,0,0,0,.41-2.14V54.47l7.5,1.21v2.83a12.49,12.49,0,0,1-1,5h0a12.56,12.56,0,0,1-2.77,4.13,13.09,13.09,0,0,1-4.14,2.79A12.82,12.82,0,0,1,193,71.45Zm-3.16-41a10.35,10.35,0,0,0-4,.79,10.19,10.19,0,0,0-5.46,5.47,10,10,0,0,0-.79,4V58.51a10.19,10.19,0,0,0,3,7.24,10.52,10.52,0,0,0,3.27,2.2,10,10,0,0,0,4,.79H193a9.8,9.8,0,0,0,4-.8,10.26,10.26,0,0,0,3.28-2.19,10.76,10.76,0,0,0,2.2-3.27,10.41,10.41,0,0,0,.79-4v-.42l-2-.33v1a8,8,0,0,1-.64,3.21A8.6,8.6,0,0,1,193,67h-3.16A8.33,8.33,0,0,1,184,64.56,8.55,8.55,0,0,1,182.28,62a8.06,8.06,0,0,1-.66-3.21V48.57h21.64V40.65a10.35,10.35,0,0,0-.79-4,11.1,11.1,0,0,0-2.19-3.27,10.31,10.31,0,0,0-7.25-3ZM201.26,47.6H181.62V40.38a8.25,8.25,0,0,1,8.25-8.25H193a8.28,8.28,0,0,1,3.22.66,8.5,8.5,0,0,1,2.6,1.75,8.23,8.23,0,0,1,1.76,2.61,8.32,8.32,0,0,1,.65,3.23Zm-16.9-2.69h14.15V40.42a5.4,5.4,0,0,0-3.35-5.07,5.2,5.2,0,0,0-2.13-.43h-3.16a5.22,5.22,0,0,0-2.14.43,5.45,5.45,0,0,0-2.94,2.93,5.6,5.6,0,0,0-.43,2.14Z"/><path class="cls-1" d="M226.5,69.27h-2.35l-14-39.49h4.75l10.29,29.93.16,2,.15-2,10.26-29.93h4.79Z"/><path class="cls-1" d="M227.47,70.61h-4.29L208.27,28.43h7.65L225.4,56l9.42-27.54h7.66Zm-2.35-2.69h.42l13-36.74h-1.82L226.85,60l-.14,1.87H224L223.88,60,214,31.18h-1.82Z"/><path class="cls-1" d="M247.27,20.32V14h5.52v6.33Zm.38,49V29.81h4.75V69.27Z"/><path class="cls-1" d="M253.71,70.61h-7.49V28.38h7.49ZM249,67.92h2V31.18h-2ZM254.1,21.7h-8.25V12.62h8.25ZM248.58,19h2.73v-3.6h-2.69Z"/><path class="cls-1" d="M288.21,69.27l-2.69-3.93a12.41,12.41,0,0,1-4,3.42,11.21,11.21,0,0,1-5.38,1.34h-1.2a11.34,11.34,0,0,1-4.52-.91A11.59,11.59,0,0,1,264.21,63a11.33,11.33,0,0,1-.8-4.49v-.39a11.51,11.51,0,0,1,.9-4.52,11.77,11.77,0,0,1,2.49-3.7,12.06,12.06,0,0,1,3.7-2.49,11.51,11.51,0,0,1,4.52-.9h10V40.42a6.83,6.83,0,0,0-2-4.87,7.16,7.16,0,0,0-2.18-1.47,6.72,6.72,0,0,0-2.69-.53H275.4a6.87,6.87,0,0,0-2.69.53,7.16,7.16,0,0,0-2.18,1.47,6.88,6.88,0,0,0-2,4.87v1.42l-4.73-.78v-.37a11.53,11.53,0,0,1,3.39-8.22,11.77,11.77,0,0,1,3.7-2.49,11.3,11.3,0,0,1,4.52-.9h2.81a11.51,11.51,0,0,1,4.52.9,11.88,11.88,0,0,1,3.7,2.49,11.74,11.74,0,0,1,2.48,3.7,11.16,11.16,0,0,1,.9,4.52V69.27ZM285,50.14H275a6.7,6.7,0,0,0-2.69.54,7,7,0,0,0-3.65,3.69,6.69,6.69,0,0,0-.53,2.69v1.66a6.69,6.69,0,0,0,.53,2.69,6.76,6.76,0,0,0,1.47,2.18,7,7,0,0,0,2.18,1.47,6.53,6.53,0,0,0,2.69.54h3.19a6.57,6.57,0,0,0,2.69-.54,6.82,6.82,0,0,0,2.18-1.47,6.89,6.89,0,0,0,2-4.87Z"/><path class="cls-1" d="M276.22,71.45H275a12.92,12.92,0,0,1-9.19-3.81,12.88,12.88,0,0,1-2.77-4.13,12.43,12.43,0,0,1-1-5v-.39a12.41,12.41,0,0,1,1-5.06,13.1,13.1,0,0,1,2.77-4.13A13.3,13.3,0,0,1,270,46.15a12.74,12.74,0,0,1,5.06-1h8.66V40.42a5.49,5.49,0,0,0-3.36-5.07,5.28,5.28,0,0,0-2.14-.43h-2.77a5.22,5.22,0,0,0-2.14.43,5.64,5.64,0,0,0-1.76,1.17,5.76,5.76,0,0,0-1.17,1.76,5.25,5.25,0,0,0-.43,2.14v3l-7.48-1.23V40.69a12.84,12.84,0,0,1,1-5,13,13,0,0,1,6.92-6.91,12.72,12.72,0,0,1,5.05-1h2.83a12.9,12.9,0,0,1,5.05,1,13.47,13.47,0,0,1,4.13,2.78,12.93,12.93,0,0,1,2.77,4.13,12.58,12.58,0,0,1,1,5.06V70.61H287.5l-2-3a14.06,14.06,0,0,1-3.26,2.38A12.61,12.61,0,0,1,276.22,71.45ZM275,47.84a10.32,10.32,0,0,0-7.32,3,10.67,10.67,0,0,0-2.19,3.27,10,10,0,0,0-.79,4v.38a10,10,0,0,0,.79,4A10.18,10.18,0,0,0,271,68a10,10,0,0,0,4,.79h1.2a9.8,9.8,0,0,0,4.68-1.13,11.06,11.06,0,0,0,3.6-3L285.66,63l2.69,4.14V40.69a10.35,10.35,0,0,0-.79-4,10.64,10.64,0,0,0-2.2-3.27,10.26,10.26,0,0,0-3.28-2.19,10,10,0,0,0-4-.79h-2.77a10,10,0,0,0-4,.79A10.22,10.22,0,0,0,265,39.85l2,.33a7.94,7.94,0,0,1,.66-3,8.23,8.23,0,0,1,1.74-2.61A8.67,8.67,0,0,1,272,32.78a8.15,8.15,0,0,1,3.23-.66h3a8.23,8.23,0,0,1,7.58,5,8,8,0,0,1,.65,3.22v7.47ZM278.18,67H275a8.23,8.23,0,0,1-5.82-2.41A8.32,8.32,0,0,1,267.43,62a8,8,0,0,1-.64-3.21V57.07a8,8,0,0,1,.64-3.21,8.64,8.64,0,0,1,1.75-2.63A8.21,8.21,0,0,1,275,48.8h11.39v9.94a8,8,0,0,1-.64,3.21,8.27,8.27,0,0,1-7.59,5ZM275,51.54a5.47,5.47,0,0,0-3.89,1.62A6.23,6.23,0,0,0,270,54.93a5.44,5.44,0,0,0-.42,2.14v1.67a5.15,5.15,0,0,0,.42,2.12,5.56,5.56,0,0,0,1.18,1.76,5.63,5.63,0,0,0,1.75,1.18,5.25,5.25,0,0,0,2.14.43h3.19a5.42,5.42,0,0,0,3.88-1.61,5.38,5.38,0,0,0,1.62-3.88v-7.2Z"/></g></g></svg>