<svg xmlns="http://www.w3.org/2000/svg" xmlns:xlink="http://www.w3.org/1999/xlink" viewBox="0 0 216.49 62.5"><defs><style>.cls-1{fill:url(#linear-gradient);}.cls-2{fill:url(#linear-gradient-2);}.cls-3{fill:url(#linear-gradient-3);}.cls-4{fill:url(#linear-gradient-4);}.cls-5{fill:url(#linear-gradient-5);}.cls-6{fill:url(#linear-gradient-6);}.cls-7{fill:url(#linear-gradient-7);}.cls-8{fill:url(#linear-gradient-8);}.cls-9{fill:url(#linear-gradient-9);}.cls-10{fill:url(#linear-gradient-10);}.cls-11{fill:url(#linear-gradient-11);}.cls-12{fill:url(#linear-gradient-12);}.cls-13{fill:url(#linear-gradient-13);}.cls-14{fill:url(#linear-gradient-14);}</style><linearGradient id="linear-gradient" y1="909.49" x2="47.98" y2="909.49" gradientTransform="matrix(1, 0, 0, -1, 0, 948)" gradientUnits="userSpaceOnUse"><stop offset="0" stop-color="#0c36bc"/><stop offset="0" stop-color="#103fc2"/><stop offset="0" stop-color="#1e60d7"/><stop offset="0" stop-color="#236ddf"/><stop offset="0.06" stop-color="#297ae7"/><stop offset="0.16" stop-color="#308bf2"/><stop offset="0.3" stop-color="#3596f9"/><stop offset="0.48" stop-color="#389dfe"/><stop offset="1" stop-color="#399fff"/><stop offset="1" stop-color="#55adff"/><stop offset="1" stop-color="#9dcfff"/><stop offset="1" stop-color="#fff"/></linearGradient><linearGradient id="linear-gradient-2" x1="13.79" y1="924.01" x2="61.77" y2="924.01" xlink:href="#linear-gradient"/><linearGradient id="linear-gradient-3" x1="939.7" y1="407.55" x2="943.8" y2="407.55" gradientTransform="matrix(1, 0, 0, -1, -851.16, 438.5)" xlink:href="#linear-gradient"/><linearGradient id="linear-gradient-4" x1="938.68" y1="407.56" x2="944.82" y2="407.56" gradientTransform="matrix(1, 0, 0, -1, -851.16, 438.5)" xlink:href="#linear-gradient"/><linearGradient id="linear-gradient-5" x1="952.94" y1="407.54" x2="976.06" y2="407.54" gradientTransform="matrix(1, 0, 0, -1, -851.16, 438.5)" xlink:href="#linear-gradient"/><linearGradient id="linear-gradient-6" x1="951.9" y1="407.56" x2="977.08" y2="407.56" gradientTransform="matrix(1, 0, 0, -1, -851.16, 438.5)" xlink:href="#linear-gradient"/><linearGradient id="linear-gradient-7" x1="983.69" y1="401.66" x2="1003.31" y2="401.66" gradientTransform="matrix(1, 0, 0, -1, -851.16, 438.5)" xlink:href="#linear-gradient"/><linearGradient id="linear-gradient-8" x1="982.67" y1="401.65" x2="1004.32" y2="401.65" gradientTransform="matrix(1, 0, 0, -1, -851.16, 438.5)" xlink:href="#linear-gradient"/><linearGradient id="linear-gradient-9" x1="1007.4" y1="401.68" x2="1029.97" y2="401.68" gradientTransform="matrix(1, 0, 0, -1, -851.16, 438.5)" xlink:href="#linear-gradient"/><linearGradient id="linear-gradient-10" x1="1005.96" y1="401.68" x2="1031.4" y2="401.68" gradientTransform="matrix(1, 0, 0, -1, -851.16, 438.5)" xlink:href="#linear-gradient"/><linearGradient id="linear-gradient-11" x1="1034.96" y1="407.54" x2="1039.06" y2="407.54" gradientTransform="matrix(1, 0, 0, -1, -851.16, 438.5)" xlink:href="#linear-gradient"/><linearGradient id="linear-gradient-12" x1="1033.94" y1="407.56" x2="1040.08" y2="407.56" gradientTransform="matrix(1, 0, 0, -1, -851.16, 438.5)" xlink:href="#linear-gradient"/><linearGradient id="linear-gradient-13" x1="1047" y1="401.63" x2="1066.61" y2="401.63" gradientTransform="matrix(1, 0, 0, -1, -851.16, 438.5)" xlink:href="#linear-gradient"/><linearGradient id="linear-gradient-14" x1="1046" y1="401.64" x2="1067.65" y2="401.64" gradientTransform="matrix(1, 0, 0, -1, -851.16, 438.5)" xlink:href="#linear-gradient"/></defs><title>logo</title><g id="Layer_2" data-name="Layer 2"><g id="Layer_1-2" data-name="Layer 1"><rect class="cls-1" y="14.52" width="47.98" height="47.98"/><polygon class="cls-2" points="13.79 0 13.79 9.56 51.84 9.56 51.84 47.98 61.77 47.98 61.77 0 13.79 0"/><path class="cls-3" d="M88.54,15.11V10.4h4.1v4.71Zm.3,36.39V22.16h3.52V51.5Z"/><path class="cls-4" d="M93.37,52.5H87.84V21.1H93.4Zm-3.53-2h1.49V23.18H89.84Zm3.81-34.37H87.51V9.38h6.14Zm-4.1-2h2.06V11.46H89.55Z"/><path class="cls-5" d="M124.11,45.36A10.43,10.43,0,0,1,122,48.57a10.07,10.07,0,0,1-3.23,2.16,9.91,9.91,0,0,1-3.94.79h-13V10.4h13a9.91,9.91,0,0,1,3.94.79,10.09,10.09,0,0,1,5.39,5.39,9.92,9.92,0,0,1,.79,4v20.9A9.82,9.82,0,0,1,124.11,45.36ZM121.2,20.5a6.32,6.32,0,0,0-.52-2.57,6.59,6.59,0,0,0-1.41-2.09,6.39,6.39,0,0,0-2.1-1.42,6.27,6.27,0,0,0-2.56-.52h-9.15V48h9.15a6.44,6.44,0,0,0,2.56-.52,6.63,6.63,0,0,0,2.1-1.41A6.4,6.4,0,0,0,120.68,44a6.32,6.32,0,0,0,.52-2.57Z"/><path class="cls-6" d="M114.78,52.5h-14V9.38h14a11.11,11.11,0,0,1,11.14,11.15v20.9a10.91,10.91,0,0,1-.87,4.33h0a11.27,11.27,0,0,1-2.38,3.53,11.08,11.08,0,0,1-3.55,2.38A10.92,10.92,0,0,1,114.78,52.5Zm-12-2h12a9,9,0,0,0,3.54-.7,9.2,9.2,0,0,0,2.9-1.95,9.07,9.07,0,0,0,2-2.9h0a8.69,8.69,0,0,0,.71-3.52V20.5a9.08,9.08,0,0,0-5.56-8.4,9.13,9.13,0,0,0-3.54-.71h-12ZM114.61,49H104.44V12.91h10.17a7.38,7.38,0,0,1,3,.6,7.77,7.77,0,0,1,4,4,7.38,7.38,0,0,1,.6,3v20.9a7.38,7.38,0,0,1-.6,3,7.66,7.66,0,0,1-4,4A7.33,7.33,0,0,1,114.61,49Zm-8.13-2h8.13a5.53,5.53,0,0,0,2.16-.44,5.91,5.91,0,0,0,1.78-1.19,5.45,5.45,0,0,0,1.2-1.76,5.34,5.34,0,0,0,.43-2.16v-21a5.34,5.34,0,0,0-.43-2.16,5.78,5.78,0,0,0-3-3,5.52,5.52,0,0,0-2.16-.43h-8.13Z"/><path class="cls-7" d="M151.47,46.82a8.66,8.66,0,0,1-8,5.28h-2.35a8.45,8.45,0,0,1-3.36-.68,8.63,8.63,0,0,1-4.6-4.6,8.39,8.39,0,0,1-.67-3.35V30.22a8.44,8.44,0,0,1,.67-3.36,8.63,8.63,0,0,1,4.6-4.6,8.44,8.44,0,0,1,3.36-.67h2.35a8.39,8.39,0,0,1,3.35.67,8.87,8.87,0,0,1,2.76,1.85,8.58,8.58,0,0,1,2.52,6.11v6.91H136.05v6.54a5.08,5.08,0,0,0,.41,2,5,5,0,0,0,2.7,2.71,4.9,4.9,0,0,0,2,.4h2.35a4.9,4.9,0,0,0,2-.4,5.13,5.13,0,0,0,2.71-2.71,4.9,4.9,0,0,0,.4-2v-2l3.53.57V43.5A8.61,8.61,0,0,1,151.47,46.82ZM148.61,30a4.9,4.9,0,0,0-.4-2,5.09,5.09,0,0,0-2.71-2.71,5.07,5.07,0,0,0-2-.4h-2.35a5.25,5.25,0,0,0-2,.4,5.37,5.37,0,0,0-1.62,1.09A5.17,5.17,0,0,0,136.45,28a5.08,5.08,0,0,0-.41,2v4.36H148.6Z"/><path class="cls-8" d="M143.51,53.12h-2.35a9.67,9.67,0,0,1-8.9-5.9,9.48,9.48,0,0,1-.75-3.75V30.22a9.53,9.53,0,0,1,.75-3.76,9.65,9.65,0,0,1,5.14-5.14,9.53,9.53,0,0,1,3.76-.75h2.35a9.48,9.48,0,0,1,3.75.75,9.58,9.58,0,0,1,5.14,5.14,9.36,9.36,0,0,1,.76,3.76v7.93H137.07v5.52a4.09,4.09,0,0,0,.32,1.58,4.31,4.31,0,0,0,.88,1.31,4,4,0,0,0,1.3.87,3.77,3.77,0,0,0,1.59.32h2.35a3.77,3.77,0,0,0,1.59-.32,4,4,0,0,0,1.3-.87,4.39,4.39,0,0,0,.88-1.3,4.1,4.1,0,0,0,.31-1.59V40.5l5.57.9v2.1a9.28,9.28,0,0,1-.76,3.75h0a9.53,9.53,0,0,1-2.06,3.07,9.77,9.77,0,0,1-3.08,2.07A9.46,9.46,0,0,1,143.51,53.12Zm-2.35-30.51a7.58,7.58,0,0,0-7.65,7.65V43.5a7.59,7.59,0,0,0,2.22,5.38,7.89,7.89,0,0,0,2.43,1.64,7.54,7.54,0,0,0,3,.59h2.35a7.38,7.38,0,0,0,3-.6A7.57,7.57,0,0,0,149,48.88a8,8,0,0,0,1.63-2.43,7.65,7.65,0,0,0,.59-3v-.31l-1.49-.25v.76a6,6,0,0,1-.48,2.39,6.39,6.39,0,0,1-5.69,3.7h-2.35a5.83,5.83,0,0,1-2.4-.49,5.91,5.91,0,0,1-1.94-1.3,6.36,6.36,0,0,1-1.3-1.94,5.94,5.94,0,0,1-.49-2.39V36.11h16.09V30.22a7.54,7.54,0,0,0-.59-3,8,8,0,0,0-1.63-2.43,7.65,7.65,0,0,0-5.39-2.22Zm8.47,12.78H135V30a6.2,6.2,0,0,1,.49-2.4,6.13,6.13,0,0,1,5.64-3.73h2.35a6.2,6.2,0,0,1,2.4.49,6.31,6.31,0,0,1,1.93,1.3,6.21,6.21,0,0,1,1.31,1.94,6,6,0,0,1,.48,2.4Zm-12.56-2h10.52V30.05a3.92,3.92,0,0,0-.31-1.59,4,4,0,0,0-2.18-2.18,4.1,4.1,0,0,0-1.59-.32h-2.35a4.1,4.1,0,0,0-1.59.32,4,4,0,0,0-2.18,2.18,4.1,4.1,0,0,0-.32,1.59Z"/><path class="cls-9" d="M168.4,51.5h-1.75L156.24,22.14h3.53l7.65,22.25.12,1.52.11-1.52,7.63-22.25h3.56Z"/><path class="cls-10" d="M169.12,52.5h-3.19L154.84,21.14h5.69l7.05,20.47,7-20.47h5.7Zm-1.75-2h.31l9.68-27.32H176l-7.35,21.44L168.55,46h-2l-.1-1.39-7.38-21.44h-1.36Z"/><path class="cls-11" d="M183.84,15.11V10.4h4.1v4.71Zm.28,36.41V22.16h3.53V51.5Z"/><path class="cls-12" d="M188.63,52.5h-5.57V21.1h5.57Zm-3.53-2h1.49V23.18H185.1Zm3.82-34.37h-6.14V9.38h6.14Zm-4.11-2h2V11.46h-2Z"/><path class="cls-13" d="M214.28,51.5l-2-2.92a9.29,9.29,0,0,1-3,2.54,8.33,8.33,0,0,1-4,1h-.89a8.64,8.64,0,0,1-8-5.28,8.48,8.48,0,0,1-.59-3.34v-.29a8.44,8.44,0,0,1,.67-3.36,8.54,8.54,0,0,1,1.85-2.75,8.88,8.88,0,0,1,2.75-1.85,8.44,8.44,0,0,1,3.36-.67h7.45V30.05a5.07,5.07,0,0,0-1.49-3.62,5.37,5.37,0,0,0-1.62-1.09,5.07,5.07,0,0,0-2-.4h-2.06a5.07,5.07,0,0,0-2,.4,5.37,5.37,0,0,0-1.62,1.09,5.07,5.07,0,0,0-1.49,3.62v1.06l-3.52-.58v-.28a8.44,8.44,0,0,1,.67-3.36,8.63,8.63,0,0,1,4.6-4.6,8.44,8.44,0,0,1,3.36-.67h2.09a8.44,8.44,0,0,1,3.36.67A8.88,8.88,0,0,1,213,24.14a8.54,8.54,0,0,1,1.85,2.75,8.44,8.44,0,0,1,.67,3.36V51.5Zm-2.36-14.22h-7.45a4.9,4.9,0,0,0-2,.4,5.19,5.19,0,0,0-2.71,2.74,4.9,4.9,0,0,0-.4,2v1.24a4.9,4.9,0,0,0,.4,2,4.82,4.82,0,0,0,1.09,1.62,5.37,5.37,0,0,0,1.62,1.09,4.9,4.9,0,0,0,2,.4h2.37a4.9,4.9,0,0,0,2-.4,5.14,5.14,0,0,0,1.62-1.09,4.82,4.82,0,0,0,1.09-1.62,4.9,4.9,0,0,0,.4-2Z"/><path class="cls-14" d="M205.36,53.12h-.89a9.63,9.63,0,0,1-6.83-2.83,9.53,9.53,0,0,1-2.06-3.07,9.32,9.32,0,0,1-.74-3.72v-.29a9.36,9.36,0,0,1,.76-3.76,9.53,9.53,0,0,1,2.06-3.07,9.72,9.72,0,0,1,3.07-2.07,9.53,9.53,0,0,1,3.76-.75h6.44V30.05a4.1,4.1,0,0,0-.32-1.59,4,4,0,0,0-2.18-2.18,4.1,4.1,0,0,0-1.59-.32h-2.06a4.1,4.1,0,0,0-1.59.32A4,4,0,0,0,201,28.46a4.1,4.1,0,0,0-.32,1.59v2.26l-5.56-.91V30.25a9.44,9.44,0,0,1,.71-3.75A9.65,9.65,0,0,1,201,21.36a9.53,9.53,0,0,1,3.76-.75h2.1a9.53,9.53,0,0,1,3.76.75,10,10,0,0,1,3.07,2.07,9.53,9.53,0,0,1,2.06,3.07,9.36,9.36,0,0,1,.76,3.76V52.5h-2.74l-1.52-2.27A10.53,10.53,0,0,1,209.81,52,9.36,9.36,0,0,1,205.36,53.12Zm-.89-17.55A7.64,7.64,0,0,0,199,37.79a8,8,0,0,0-1.63,2.43,7.54,7.54,0,0,0-.59,3v.28a7.65,7.65,0,0,0,.59,3A8,8,0,0,0,199,48.88a7.76,7.76,0,0,0,2.44,1.64,7.54,7.54,0,0,0,3,.59h.89a7.39,7.39,0,0,0,3.48-.84A8.11,8.11,0,0,0,211.52,48l.86-1.14,2,3.08V30.25a7.54,7.54,0,0,0-.59-3,7.86,7.86,0,0,0-1.63-2.43,7.64,7.64,0,0,0-5.44-2.22h-2.06a7.58,7.58,0,0,0-7.63,7l1.46.24a6,6,0,0,1,.49-2.26,6,6,0,0,1,3.24-3.24,6,6,0,0,1,2.4-.49h2.22a6.2,6.2,0,0,1,2.4.49,6.11,6.11,0,0,1,3.24,3.24A6,6,0,0,1,213,30v5.55Zm2.35,14.22h-2.35A6.14,6.14,0,0,1,200.14,48a6.21,6.21,0,0,1-1.31-1.94,6,6,0,0,1-.48-2.39V42.43a6,6,0,0,1,.48-2.39,6.28,6.28,0,0,1,1.3-1.95,6.11,6.11,0,0,1,4.34-1.81h8.47v7.39a6,6,0,0,1-.48,2.39A6.21,6.21,0,0,1,211.15,48a6.12,6.12,0,0,1-4.33,1.79Zm-2.35-11.47a4.05,4.05,0,0,0-2.89,1.2,4.69,4.69,0,0,0-.88,1.32,3.92,3.92,0,0,0-.31,1.59v1.24a3.91,3.91,0,0,0,.31,1.58,4.31,4.31,0,0,0,.88,1.31,4,4,0,0,0,1.3.87,3.77,3.77,0,0,0,1.59.32h2.37a4.1,4.1,0,0,0,1.59-.32,4,4,0,0,0,1.3-.87,4.27,4.27,0,0,0,.88-1.3,4.1,4.1,0,0,0,.32-1.59V38.32Z"/></g></g></svg>