<svg xmlns="http://www.w3.org/2000/svg" viewBox="0 0 571.87 414.25"><defs><style>.cls-1{fill:#40bcdf;}.cls-2{fill:#ececec;}.cls-3{fill:#fbc39d;}.cls-4{fill:#f9ac7f;}.cls-5{fill:#1d1d1b;}.cls-6{fill:#e6e6e6;}.cls-7{fill:#111110;}.cls-8{fill:#262626;}.cls-9{fill:#323232;}.cls-10{fill:#dbdbdb;}.cls-11{fill:#141414;}.cls-12{fill:#1898ce;}.cls-13{fill:#fff;}</style></defs><title>who-are-we</title><g id="Layer_2" data-name="Layer 2"><g id="Layer_1-2" data-name="Layer 1"><path class="cls-1" d="M18.37,298.19Q1.25,283.48.21,256.14q-.21-5.85-.21-19t.21-19.21q.83-26.3,18.26-40.8t47.27-14.51q20,0,35,6.47t22.75,16.6q7.83,10.13,8.25,20.76a4.64,4.64,0,0,1-4.59,4.6H94.76a6.07,6.07,0,0,1-3.24-.73,8,8,0,0,1-2.19-2.2,24.62,24.62,0,0,0-8-10q-5.52-4.19-15.55-4.18-24.21,0-25,25.05-.21,5.83-.21,17.95t.21,18.15q.82,26.52,25.46,26.51,12.11,0,19.2-6.05t7.1-18.37v-3.75H73.88A5.35,5.35,0,0,1,68.46,248V231.72a5.35,5.35,0,0,1,5.42-5.43h53a5.35,5.35,0,0,1,5.42,5.43v24.21q0,17.74-8.24,30.58a52.62,52.62,0,0,1-23.27,19.62q-15,6.78-35.07,6.78Q35.49,312.91,18.37,298.19Z"/><path class="cls-1" d="M157.06,309.26a5,5,0,0,1-1.57-3.66V170.15a5.45,5.45,0,0,1,1.46-3.86,4.88,4.88,0,0,1,3.76-1.57H215.6q30.89,0,48,14.72t17.95,42.26q.21,6.06.21,16.07t-.21,15.86q-2.08,57.19-64.91,57.19H160.71A5,5,0,0,1,157.06,309.26Zm58.54-29.75q13.16,0,19.41-6.26t6.68-20q.42-6.06.42-15.66t-.42-15.44q-.42-13.35-7.2-19.73T214.56,196H194.73v83.48Z"/><path class="cls-1" d="M307.12,309.26a5,5,0,0,1-1.57-3.66V170.15a5.45,5.45,0,0,1,1.46-3.86,4.91,4.91,0,0,1,3.76-1.57h59.07q27.12,0,42.58,12.32t15.44,36.1q0,23.81-15.44,35.59t-42.58,11.79H346V305.6a5.17,5.17,0,0,1-1.46,3.66,4.9,4.9,0,0,1-3.75,1.56H310.77A5,5,0,0,1,307.12,309.26Zm61.67-78.58q8.56,0,13.47-4.49t4.9-13.26q0-8.13-4.49-13.14t-13.88-5H345.42v35.9Z"/><path class="cls-1" d="M448.83,309.26a5,5,0,0,1-1.56-3.66V170.15a5.41,5.41,0,0,1,1.46-3.86,4.88,4.88,0,0,1,3.76-1.57h57.39q27.55,0,43.1,12.52t15.55,35.28q0,14.61-6.78,24.83a45,45,0,0,1-18.68,15.87l28.17,50.92a5.19,5.19,0,0,1,.63,2.3,4.4,4.4,0,0,1-1.25,3,4.1,4.1,0,0,1-3.13,1.35H538.06a8.72,8.72,0,0,1-8.56-5.63l-23-45.29h-20v45.7a4.91,4.91,0,0,1-1.57,3.76,5.41,5.41,0,0,1-3.86,1.46H452.49A5,5,0,0,1,448.83,309.26Zm60.84-80q9,0,13.67-4.48t4.7-12.42q0-7.94-4.7-12.73t-13.67-4.8H486.51v34.43Z"/><path class="cls-2" d="M190.51,329l-44,51.59a16.69,16.69,0,0,0,1.4,23.12h0a16.66,16.66,0,0,0,18.54,2.74c22.42-10.82,73.91-35.9,72.88-37.61-.78-1.29-12.34-21.26-21.66-37.37A16.68,16.68,0,0,0,190.51,329Z"/><path class="cls-3" d="M269.82,377.78,169.58,410.49a17.5,17.5,0,0,1-22.06-11.21h0a17.49,17.49,0,0,1,11.21-22L259,344.53a17.48,17.48,0,0,1,22,11.2h0A17.48,17.48,0,0,1,269.82,377.78Z"/><path class="cls-2" d="M373.15,329l44,51.59a16.69,16.69,0,0,1-1.4,23.12h0a16.66,16.66,0,0,1-18.54,2.74c-22.42-10.82-73.91-35.9-72.88-37.61.78-1.29,12.34-21.26,21.66-37.37A16.69,16.69,0,0,1,373.15,329Z"/><path class="cls-3" d="M293.83,377.78l100.25,32.71a17.49,17.49,0,0,0,22.05-11.21h0a17.5,17.5,0,0,0-11.2-22l-100.25-32.7a17.49,17.49,0,0,0-22.05,11.2h0A17.49,17.49,0,0,0,293.83,377.78Z"/><path class="cls-2" d="M349.2,337.08l-127.57-2.6v-16.4c0-26.78,27.24-51.77,54-51.77h20.12c23.79,0,53.43,25.16,53.43,48.95Z"/><path class="cls-3" d="M294.41,236.11H275.67a6.86,6.86,0,0,0-6.86,6.86v29.39a16.23,16.23,0,1,0,32.46,0V243A6.86,6.86,0,0,0,294.41,236.11Z"/><path class="cls-4" d="M268.81,266.31s1.31,9.56,16.23,9.56,16.23-9.56,16.23-9.56Z"/><path class="cls-4" d="M239.3,189.42A12.63,12.63,0,1,0,251.44,202,12.39,12.39,0,0,0,239.3,189.42Z"/><path class="cls-4" d="M330.94,189.42A12.63,12.63,0,1,0,343.08,202,12.38,12.38,0,0,0,330.94,189.42Z"/><path class="cls-3" d="M281.31,269.52l-.08.08c1.26.11,2.53.18,3.81.18h0a44,44,0,0,0,11.19-1.44l0-.1c19.82-5.21,34.5-23.87,34.5-46.1V166.42c0-26.26-20.48-22.08-45.74-22.08h0c-25.26,0-45.74-4.18-45.74,22.08v55.72C239.3,247.1,257.8,267.55,281.31,269.52Z"/><path class="cls-5" d="M321.55,203.82v15H305.33S301.31,208,285,208s-20.29,10.85-20.29,10.85H248.53v-15c0-5.93-5.56-7.88-9.23-8.53v26.85c0,25,18.49,45.41,42,47.38l-.08.08c1.26.11,2.53.18,3.81.18s2.55-.07,3.81-.18l-.08-.08c23.52-2,42-22.42,42-47.38V195.29C327.11,195.94,321.55,197.89,321.55,203.82Z"/><path d="M306.15,189.42a3.21,3.21,0,1,1-3.21-3.33A3.27,3.27,0,0,1,306.15,189.42Z"/><rect x="296.62" y="178.8" width="13.62" height="5.35" rx="0.93" ry="0.93"/><path class="cls-6" d="M268.26,226.69h31.67s-2.8,10.8-15.83,10.8S268.26,226.69,268.26,226.69Z"/><path class="cls-7" d="M288.77,260.78l.08.08c-1.26.11-2.53.18-3.81.18s-2.55-.07-3.81-.18l.08-.08c-23.52-2-42-22.43-42-47.38v8.74c0,25,18.49,45.41,42,47.38l-.08.08c1.26.11,2.53.18,3.81.18s2.55-.07,3.81-.18l-.08-.08c23.52-2,42-22.42,42-47.38V213.4C330.78,238.35,312.29,258.81,288.77,260.78Z"/><path d="M268.53,189.42a3.21,3.21,0,1,1-3.21-3.33A3.27,3.27,0,0,1,268.53,189.42Z"/><rect x="259" y="178.8" width="13.62" height="5.35" rx="0.93" ry="0.93"/><path class="cls-5" d="M318.7,126c-12.51-1.76-32-2-46.23,9.73a9.56,9.56,0,0,0-.91.87H260.31c-11.6,0-21,8.22-21,18.35v63a4,4,0,0,0,3.88-4V173.35s.72-12.9,12.41-12.9H312.8c12.46,0,14,11.29,14.12,12.75V214a4,4,0,0,0,3.88,4V156.16l.14-15.88A14.26,14.26,0,0,0,318.7,126Z"/><path class="cls-4" d="M289.47,199.93H278.72a4,4,0,0,0,0,8.07h10.75a4,4,0,0,0,0-8.07Z"/><rect class="cls-8" x="172.42" y="396.51" width="222.85" height="15.26" rx="5.81" ry="5.81"/><rect class="cls-9" x="192.93" y="297.84" width="184.27" height="113.94" rx="9.17" ry="9.17"/><path class="cls-10" d="M283.85,368.79a14,14,0,1,1,14-14A14,14,0,0,1,283.85,368.79Zm0-25.53a11.55,11.55,0,1,0,11.55,11.55A11.56,11.56,0,0,0,283.85,343.26Z"/><path class="cls-11" d="M466.26,414.25h-351a2.47,2.47,0,1,1,0-4.94h351a2.47,2.47,0,1,1,0,4.94Z"/><path class="cls-11" d="M102.94,414.25H63.62a2.47,2.47,0,0,1,0-4.94h39.32a2.47,2.47,0,1,1,0,4.94Z"/><path class="cls-1" d="M519,414.25H479.7a2.47,2.47,0,1,1,0-4.94H519a2.47,2.47,0,1,1,0,4.94Z"/><path class="cls-1" d="M541,414.25h-8.42a2.47,2.47,0,1,1,0-4.94H541a2.47,2.47,0,1,1,0,4.94Z"/><path class="cls-1" d="M49.44,414.25H36.07a2.47,2.47,0,1,1,0-4.94H49.44a2.47,2.47,0,0,1,0,4.94Z"/><path class="cls-1" d="M14.23,414.25H10.76a2.47,2.47,0,1,1,0-4.94h3.47a2.47,2.47,0,0,1,0,4.94Z"/><path class="cls-12" d="M161.11,120.44H142.26A36.26,36.26,0,0,0,106,156.7h0A36.26,36.26,0,0,0,142.14,193h0c4.05,3.79,9.54,9.07,9.54,9.07h0l9.43-9.07h0a36.26,36.26,0,0,0,36.27-36.26h0A36.26,36.26,0,0,0,161.11,120.44Z"/><circle class="cls-12" cx="304.94" cy="30.88" r="30.88" transform="translate(204.14 320.32) rotate(-76.58)"/><circle class="cls-1" cx="121.29" cy="337.08" r="7.92"/><circle class="cls-1" cx="432.89" cy="39.05" r="8.17"/><path class="cls-12" d="M424.79,135.88a1.26,1.26,0,0,1-.88-.37L419.57,131H385.89a27.28,27.28,0,1,1,0-54.56h47a27.28,27.28,0,1,1,0,54.56h-3.53l-3.63,4.48a1.23,1.23,0,0,1-.89.45ZM385.89,78.8a24.87,24.87,0,0,0,0,49.73h34.2a1.19,1.19,0,0,1,.87.38l3.75,3.93,3.13-3.86a1.23,1.23,0,0,1,.94-.45h4.11a24.87,24.87,0,1,0,0-49.73Z"/><path class="cls-1" d="M109.86,75H76.25a14.93,14.93,0,0,0,0,29.86h33.61a14.93,14.93,0,1,0,0-29.86Z"/><polygon class="cls-1" points="84.92 103.94 80.89 109.42 77.46 103.94 84.92 103.94"/><path class="cls-12" d="M460.19,156.71H428.63a26.79,26.79,0,0,0,0,53.58h3.29l6.78,9.53,6.22-9.53h15.27a26.79,26.79,0,1,0,0-53.58Z"/><path class="cls-1" d="M244.42,105.7a1.86,1.86,0,0,1-1.31-.54L232.9,95a1.86,1.86,0,1,1,2.62-2.63l10.21,10.21a1.86,1.86,0,0,1-1.31,3.17Z"/><path class="cls-1" d="M234.21,105.7a1.86,1.86,0,0,1-1.31-3.17l10.21-10.21A1.86,1.86,0,1,1,245.73,95l-10.21,10.21A1.84,1.84,0,0,1,234.21,105.7Z"/><path class="cls-13" d="M106.74,92.4H89.31a2.51,2.51,0,0,1,0-5h17.43a2.51,2.51,0,0,1,0,5Z"/><path class="cls-1" d="M437,97.12H383.35a2.73,2.73,0,0,1,0-5.45H437a2.73,2.73,0,0,1,0,5.45Z"/><path class="cls-1" d="M411.21,106.41H383.35a2.72,2.72,0,0,1,0-5.44h27.86a2.72,2.72,0,1,1,0,5.44Z"/><path class="cls-1" d="M426.66,115.71H383.35a2.72,2.72,0,0,1,0-5.44h43.31a2.72,2.72,0,0,1,0,5.44Z"/><path class="cls-13" d="M81.22,92.4h-3a2.51,2.51,0,0,1,0-5h3a2.51,2.51,0,0,1,0,5Z"/><path class="cls-2" d="M166.62,153.07V153a3.8,3.8,0,0,0-3.38-3.74,6.71,6.71,0,0,0-.9,0h-.65v-4.84a17.43,17.43,0,0,0-.21-3.3,9.9,9.9,0,0,0-3.45-5.73,10.94,10.94,0,0,0-3.36-1.85,9.77,9.77,0,0,0-3.47-.46,9.93,9.93,0,0,0-5.6,2,11.06,11.06,0,0,0-2.33,2.4,10,10,0,0,0-1.3,2.65,11.7,11.7,0,0,0-.47,3.68v5.47h-1.1a3.81,3.81,0,0,0-3.26,1.78c-.73,1.13-.57,2.54-.57,3.83v15.82a4,4,0,0,0,1,2.77,3.83,3.83,0,0,0,2.87,1.21h22a4.66,4.66,0,0,0,1.53-.19,3.82,3.82,0,0,0,2.62-3.61V153.07Zm-12,8.73a3.2,3.2,0,0,1-1.63,2.64V167a1.43,1.43,0,0,1-2.85,0v-2.58a3,3,0,0,1-.88-4.69,3,3,0,0,1,3.3-.89,3.11,3.11,0,0,1,2,2.83h0v0A.17.17,0,0,1,154.65,161.8Zm3.25-16.67v4.07H145.29v-5.6a12.82,12.82,0,0,1,.05-1.39,7.79,7.79,0,0,1,.44-1.57,7.55,7.55,0,0,1,.82-1.4s-.09.11-.14.17l.3-.39c-.06.07-.11.15-.16.22a8.12,8.12,0,0,1,1.13-1.14l-.21.16.38-.3-.17.14a8.23,8.23,0,0,1,1.41-.82,6.31,6.31,0,0,1,3.3-.44,6.26,6.26,0,0,1,3,1.26l-.16-.13.38.3-.21-.17a9.53,9.53,0,0,1,1.14,1.15c-.05-.07-.1-.15-.16-.22l.3.39c-.05-.06-.09-.12-.14-.17a6.23,6.23,0,0,1,1.25,3A28.45,28.45,0,0,1,157.9,145.13Z"/><path class="cls-2" d="M317.24,41.62a10.5,10.5,0,0,0-10.5-10.49h-3a10.49,10.49,0,0,0-10.49,10.49v3h24Z"/><path class="cls-2" d="M305.25,16.14a6,6,0,1,1-6,6A6,6,0,0,1,305.25,16.14Z"/><path class="cls-2" d="M432.87,172.42a10.77,10.77,0,0,1,9.46,5.63H464.1l5.12,4.61-6.66,5.63-3.07-3.07-3.07,3.07-3.07-3.07-3.07,3.07h-7.95a10.75,10.75,0,1,1-9.46-15.87Zm-3.58,7.68a3.07,3.07,0,1,0,3.07,3.07A3.06,3.06,0,0,0,429.29,180.1Z"/><path class="cls-1" d="M430.92,300a20.39,20.39,0,0,0-20.39-20.39H409a20.38,20.38,0,0,0-3.79,40.4l4.16,6.65,4.89-6.63A20.39,20.39,0,0,0,430.92,300Z"/><path class="cls-2" d="M408.77,303.41h2a.59.59,0,0,0,.6-.59l1.2-13.48a.6.6,0,0,0-.6-.6h-4.34a.6.6,0,0,0-.6.6l1.2,13.48A.58.58,0,0,0,408.77,303.41Z"/><path class="cls-2" d="M409.75,305.47a2.92,2.92,0,1,0,2.92,2.92A2.92,2.92,0,0,0,409.75,305.47Z"/><path class="cls-2" d="M471,375.75a1.86,1.86,0,0,1-1.31-.54L459.51,365a1.85,1.85,0,0,1,2.62-2.62l10.21,10.21a1.85,1.85,0,0,1-1.31,3.16Z"/><path class="cls-2" d="M460.82,375.75a1.85,1.85,0,0,1-1.31-3.16l10.21-10.21a1.85,1.85,0,0,1,2.62,2.62l-10.21,10.21A1.86,1.86,0,0,1,460.82,375.75Z"/></g></g></svg>